<svg width="362.0824340820312px" height="168.835009765625px" xmlns="http://www.w3.org/2000/svg" viewBox="68.95878295898439 -9.417504882812494 362.0824340820312 168.835009765625" style="background: rgba(0, 0, 0, 0);" preserveAspectRatio="xMidYMid"><defs><filter id="editing-hole" x="-100%" y="-100%" width="300%" height="300%"><feFlood flood-color="#90caf9" result="black"></feFlood><feMorphology operator="dilate" radius="2" in="SourceGraphic" result="erode"></feMorphology><feGaussianBlur in="erode" stdDeviation="4" result="blur"></feGaussianBlur><feOffset in="blur" dx="2" dy="2" result="offset"></feOffset><feComposite operator="atop" in="offset" in2="black" result="merge"></feComposite><feComposite operator="in" in="merge" in2="SourceGraphic" result="inner-shadow"></feComposite></filter></defs><g filter="url(#editing-hole)"><g transform="translate(123.331871509552, 107.14999771118164)"><path d="M24.61-51.77L17.89-27.43L32.33-27.43L25.61-51.77L24.61-51.77ZM36.96-55.04L46.41-22.98L46.41-22.98Q46.50-19.89 46.64-16.67L46.64-16.67L46.64-16.67Q46.77-13.44 46.77-10.44L46.77-10.44L46.77-9.08L46.77-9.08Q46.77-7.36 46.66-5.74L46.66-5.74L46.66-5.74Q46.55-4.13 45.96-2.84L45.96-2.84L45.96-2.84Q45.36-1.54 44.09-0.77L44.09-0.77L44.09-0.77Q42.82 0 40.51 0L40.51 0L40.51 0Q38.14 0 36.87-0.77L36.87-0.77L36.87-0.77Q35.60-1.54 34.99-2.82L34.99-2.82L34.99-2.82Q34.38-4.09 34.26-5.72L34.26-5.72L34.26-5.72Q34.15-7.36 34.15-9.08L34.15-9.08L34.15-15.44L15.98-15.44L15.98-9.08L15.98-9.08Q15.98-7.36 15.87-5.72L15.87-5.72L15.87-5.72Q15.76-4.09 15.14-2.82L15.14-2.82L15.14-2.82Q14.53-1.54 13.26-0.77L13.26-0.77L13.26-0.77Q11.99 0 9.63 0L9.63 0L9.63 0Q7.27 0 5.99-0.77L5.99-0.77L5.99-0.77Q4.72-1.54 4.13-2.84L4.13-2.84L4.13-2.84Q3.54-4.13 3.45-5.74L3.45-5.74L3.45-5.74Q3.36-7.36 3.36-9.08L3.36-9.08L3.36-10.44L3.36-10.44Q3.36-11.85 3.38-13.44L3.38-13.44L3.38-13.44Q3.41-15.03 3.45-16.67L3.45-16.67L3.45-16.67Q3.50-18.30 3.54-19.91L3.54-19.91L3.54-19.91Q3.59-21.52 3.63-22.98L3.63-22.98L3.63-22.98Q5.90-30.88 8.40-38.98L8.40-38.98L8.40-38.98Q10.90-47.09 13.17-55.04L13.17-55.04L13.17-55.04Q13.62-56.72 14.26-58.28L14.26-58.28L14.26-58.28Q14.89-59.85 15.94-61.01L15.94-61.01L15.94-61.01Q16.98-62.17 18.62-62.87L18.62-62.87L18.62-62.87Q20.25-63.57 22.80-63.57L22.80-63.57L27.34-63.57L27.34-63.57Q29.83-63.57 31.49-62.87L31.49-62.87L31.49-62.87Q33.15-62.17 34.19-61.01L34.19-61.01L34.19-61.01Q35.24-59.85 35.85-58.28L35.85-58.28L35.85-58.28Q36.46-56.72 36.96-55.04L36.96-55.04ZM62.48-63.57L75.65-63.57L75.65-63.57Q79.69-63.57 83.26-62.53L83.26-62.53L83.26-62.53Q86.82-61.49 89.48-59.40L89.48-59.40L89.48-59.40Q92.14-57.31 93.66-54.20L93.66-54.20L93.66-54.20Q95.18-51.09 95.18-46.95L95.18-46.95L95.18-46.95Q95.18-44.82 94.61-43.07L94.61-43.07L94.61-43.07Q94.04-41.32 93.16-39.92L93.16-39.92L93.16-39.92Q92.27-38.51 91.21-37.46L91.21-37.46L91.21-37.46Q90.14-36.42 89.14-35.67L89.14-35.67L89.14-35.67Q88.14-34.92 87.37-34.49L87.37-34.49L87.37-34.49Q86.60-34.06 86.28-33.97L86.28-33.97L86.28-33.97Q89.00-33.19 90.87-31.99L90.87-31.99L90.87-31.99Q92.73-30.79 93.98-29.36L93.98-29.36L93.98-29.36Q95.23-27.93 95.93-26.41L95.93-26.41L95.93-26.41Q96.63-24.88 96.97-23.45L96.97-23.45L96.97-23.45Q97.31-22.02 97.38-20.82L97.38-20.82L97.38-20.82Q97.45-19.62 97.45-18.89L97.45-18.89L97.45-18.89Q97.45-15.35 96.59-12.65L96.59-12.65L96.59-12.65Q95.72-9.94 94.32-7.97L94.32-7.97L94.32-7.97Q92.91-5.99 91.09-4.61L91.09-4.61L91.09-4.61Q89.28-3.22 87.41-2.36L87.41-2.36L87.41-2.36Q82.96-0.27 77.38 0L77.38 0L62.48 0L62.48 0Q59.90 0 58.49-0.89L58.49-0.89L58.49-0.89Q57.08-1.77 56.44-3.25L56.44-3.25L56.44-3.25Q55.81-4.72 55.70-6.58L55.70-6.58L55.70-6.58Q55.58-8.45 55.58-10.44L55.58-10.44L55.58-53.22L55.58-53.22Q55.58-55.17 55.70-57.04L55.70-57.04L55.70-57.04Q55.81-58.90 56.44-60.35L56.44-60.35L56.44-60.35Q57.08-61.80 58.49-62.69L58.49-62.69L58.49-62.69Q59.90-63.57 62.48-63.57L62.48-63.57ZM75.65-27.79L69.39-27.79L69.39-10.72L76.02-10.72L76.02-10.72Q78.15-10.81 79.83-11.72L79.83-11.72L79.83-11.72Q80.56-12.08 81.24-12.67L81.24-12.67L81.24-12.67Q81.92-13.26 82.46-14.15L82.46-14.15L82.46-14.15Q83.01-15.03 83.33-16.19L83.33-16.19L83.33-16.19Q83.65-17.35 83.65-18.89L83.65-18.89L83.65-18.89Q83.65-20.57 83.30-21.82L83.30-21.82L83.30-21.82Q82.96-23.07 82.40-24.00L82.40-24.00L82.40-24.00Q81.83-24.93 81.10-25.59L81.10-25.59L81.10-25.59Q80.38-26.25 79.65-26.66L79.65-26.66L79.65-26.66Q77.88-27.61 75.65-27.79L75.65-27.79ZM74.84-52.86L69.39-52.86L69.39-37.42L75.20-37.42L75.20-37.42Q77.15-37.51 78.70-38.33L78.70-38.33L78.70-38.33Q79.33-38.64 79.97-39.19L79.97-39.19L79.97-39.19Q80.60-39.73 81.10-40.48L81.10-40.48L81.10-40.48Q81.60-41.23 81.90-42.28L81.90-42.28L81.90-42.28Q82.19-43.32 82.19-44.68L82.19-44.68L82.19-44.68Q82.19-46.23 81.87-47.39L81.87-47.39L81.87-47.39Q81.56-48.54 81.03-49.38L81.03-49.38L81.03-49.38Q80.51-50.22 79.85-50.81L79.85-50.81L79.85-50.81Q79.20-51.40 78.51-51.81L78.51-51.81L78.51-51.81Q76.88-52.68 74.84-52.86L74.84-52.86ZM104.99-18.44L104.99-45.59L104.99-45.59Q104.99-49.95 106.26-53.02L106.26-53.02L106.26-53.02Q107.53-56.08 109.51-58.13L109.51-58.13L109.51-58.13Q111.48-60.17 113.87-61.33L113.87-61.33L113.87-61.33Q116.25-62.48 118.50-63.07L118.50-63.07L118.50-63.07Q120.75-63.67 122.56-63.80L122.56-63.80L122.56-63.80Q124.38-63.94 125.24-63.94L125.24-63.94L126.79-63.94L126.79-63.94Q127.65-63.94 129.46-63.80L129.46-63.80L129.46-63.80Q131.28-63.67 133.51-63.07L133.51-63.07L133.51-63.07Q135.73-62.48 138.11-61.33L138.11-61.33L138.11-61.33Q140.50-60.17 142.43-58.13L142.43-58.13L142.43-58.13Q144.36-56.08 145.61-53.02L145.61-53.02L145.61-53.02Q146.86-49.95 146.86-45.59L146.86-45.59L146.86-18.44L146.86-18.44Q146.86-13.94 145.61-10.81L145.61-10.81L145.61-10.81Q144.36-7.67 142.43-5.59L142.43-5.59L142.43-5.59Q140.50-3.50 138.11-2.29L138.11-2.29L138.11-2.29Q135.73-1.09 133.51-0.50L133.51-0.50L133.51-0.50Q131.28 0.09 129.46 0.23L129.46 0.23L129.46 0.23Q127.65 0.36 126.79 0.36L126.79 0.36L125.24 0.36L125.24 0.36Q124.38 0.36 122.56 0.23L122.56 0.23L122.56 0.23Q120.75 0.09 118.50-0.50L118.50-0.50L118.50-0.50Q116.25-1.09 113.87-2.29L113.87-2.29L113.87-2.29Q111.48-3.50 109.51-5.59L109.51-5.59L109.51-5.59Q107.53-7.67 106.26-10.81L106.26-10.81L106.26-10.81Q104.99-13.94 104.99-18.44L104.99-18.44ZM120.06-46.32L120.06-16.71L120.06-16.71Q120.16-15.03 120.84-13.76L120.84-13.76L120.84-13.76Q121.43-12.62 122.63-11.72L122.63-11.72L122.63-11.72Q123.83-10.81 126.06-10.81L126.06-10.81L126.06-10.81Q128.24-10.81 129.42-11.72L129.42-11.72L129.42-11.72Q130.60-12.62 131.19-13.76L131.19-13.76L131.19-13.76Q131.83-15.03 131.96-16.71L131.96-16.71L131.96-46.32L131.96-46.32Q131.83-47.95 131.19-49.27L131.19-49.27L131.19-49.27Q130.60-50.36 129.42-51.29L129.42-51.29L129.42-51.29Q128.24-52.22 126.06-52.22L126.06-52.22L126.06-52.22Q123.83-52.22 122.63-51.29L122.63-51.29L122.63-51.29Q121.43-50.36 120.84-49.27L120.84-49.27L120.84-49.27Q120.16-47.95 120.06-46.32L120.06-46.32ZM157.94-18.62L157.94-53.22L157.94-53.22Q157.94-55.17 158.14-57.04L158.14-57.04L158.14-57.04Q158.35-58.90 159.09-60.35L159.09-60.35L159.09-60.35Q159.84-61.80 161.34-62.69L161.34-62.69L161.34-62.69Q162.84-63.57 165.47-63.57L165.47-63.57L165.47-63.57Q168.11-63.57 169.63-62.69L169.63-62.69L169.63-62.69Q171.15-61.80 171.90-60.35L171.90-60.35L171.90-60.35Q172.65-58.90 172.83-57.04L172.83-57.04L172.83-57.04Q173.01-55.17 173.01-53.22L173.01-53.22L173.01-17.44L173.01-17.44Q173.15-15.44 173.83-13.90L173.83-13.90L173.83-13.90Q174.10-13.21 174.56-12.58L174.56-12.58L174.56-12.58Q175.01-11.94 175.62-11.44L175.62-11.44L175.62-11.44Q176.24-10.94 177.08-10.65L177.08-10.65L177.08-10.65Q177.92-10.35 179.01-10.35L179.01-10.35L179.01-10.35Q180.10-10.35 180.96-10.65L180.96-10.65L180.96-10.65Q181.82-10.94 182.44-11.44L182.44-11.44L182.44-11.44Q183.05-11.94 183.50-12.58L183.50-12.58L183.50-12.58Q183.96-13.21 184.23-13.90L184.23-13.90L184.23-13.90Q184.91-15.44 185.00-17.44L185.00-17.44L185.00-53.22L185.00-53.22Q185.00-55.17 185.18-57.04L185.18-57.04L185.18-57.04Q185.36-58.90 186.11-60.35L186.11-60.35L186.11-60.35Q186.86-61.80 188.36-62.69L188.36-62.69L188.36-62.69Q189.86-63.57 192.54-63.57L192.54-63.57L192.54-63.57Q195.17-63.57 196.67-62.69L196.67-62.69L196.67-62.69Q198.17-61.80 198.92-60.35L198.92-60.35L198.92-60.35Q199.67-58.90 199.87-57.04L199.87-57.04L199.87-57.04Q200.08-55.17 200.08-53.22L200.08-53.22L200.08-18.62L200.08-18.62Q200.08-13.90 198.56-10.35L198.56-10.35L198.56-10.35Q197.03-6.81 194.24-4.43L194.24-4.43L194.24-4.43Q191.45-2.04 187.57-0.84L187.57-0.84L187.57-0.84Q183.68 0.36 179.01 0.36L179.01 0.36L179.01 0.36Q174.28 0.36 170.42-0.89L170.42-0.89L170.42-0.89Q166.56-2.13 163.77-4.54L163.77-4.54L163.77-4.54Q160.98-6.95 159.46-10.49L159.46-10.49L159.46-10.49Q157.94-14.03 157.94-18.62L157.94-18.62ZM217.15-63.57L240.22-63.57L240.22-63.57Q242.04-63.57 243.88-63.44L243.88-63.44L243.88-63.44Q245.71-63.30 247.21-62.67L247.21-62.67L247.21-62.67Q248.71-62.03 249.64-60.74L249.64-60.74L249.64-60.74Q250.57-59.44 250.57-57.13L250.57-57.13L250.57-57.13Q250.57-54.86 249.64-53.56L249.64-53.56L249.64-53.56Q248.71-52.27 247.21-51.63L247.21-51.63L247.21-51.63Q245.71-51.00 243.88-50.84L243.88-50.84L243.88-50.84Q242.04-50.68 240.22-50.68L240.22-50.68L235.59-50.68L235.59-10.35L235.59-10.35Q235.59-8.40 235.47-6.54L235.47-6.54L235.47-6.54Q235.36-4.68 234.73-3.22L234.73-3.22L234.73-3.22Q234.09-1.77 232.68-0.89L232.68-0.89L232.68-0.89Q231.27 0 228.69 0L228.69 0L228.69 0Q226.10 0 224.69-0.89L224.69-0.89L224.69-0.89Q223.28-1.77 222.65-3.22L222.65-3.22L222.65-3.22Q222.01-4.68 221.90-6.54L221.90-6.54L221.90-6.54Q221.78-8.40 221.78-10.35L221.78-10.35L221.78-50.68L217.15-50.68L217.15-50.68Q215.33-50.68 213.50-50.84L213.50-50.84L213.50-50.84Q211.66-51.00 210.16-51.63L210.16-51.63L210.16-51.63Q208.66-52.27 207.73-53.56L207.73-53.56L207.73-53.56Q206.80-54.86 206.80-57.13L206.80-57.13L206.80-57.13Q206.80-59.44 207.73-60.74L207.73-60.74L207.73-60.74Q208.66-62.03 210.16-62.67L210.16-62.67L210.16-62.67Q211.66-63.30 213.50-63.44L213.50-63.44L213.50-63.44Q215.33-63.57 217.15-63.57L217.15-63.57Z" fill="#90caf9"></path></g></g><style>text {
  font-size: 64px;
  font-family: Arial Black;
  dominant-baseline: central;
  text-anchor: middle;
}</style></svg>