<svg width="536.4387573242187px" height="180.35258178710936px" xmlns="http://www.w3.org/2000/svg" viewBox="-18.219378662109364 -15.176290893554679 536.4387573242187 180.35258178710936" style="background: rgba(0, 0, 0, 0);" preserveAspectRatio="xMidYMid"><defs><filter id="editing-hole" x="-100%" y="-100%" width="300%" height="300%"><feFlood flood-color="#90caf9" result="black"></feFlood><feMorphology operator="dilate" radius="2" in="SourceGraphic" result="erode"></feMorphology><feGaussianBlur in="erode" stdDeviation="4" result="blur"></feGaussianBlur><feOffset in="blur" dx="2" dy="2" result="offset"></feOffset><feComposite operator="atop" in="offset" in2="black" result="merge"></feComposite><feComposite operator="in" in="merge" in2="SourceGraphic" result="inner-shadow"></feComposite></filter></defs><g filter="url(#editing-hole)"><g transform="translate(58.17845106124878, 109.56999969482422)"><path d="M27.15-68.75L27.15-68.75L27.15-68.75Q32.52-68.75 36.40-67.53L36.40-67.53L36.40-67.53Q40.28-66.31 42.94-64.36L42.94-64.36L42.94-64.36Q45.61-62.40 47.22-59.94L47.22-59.94L47.22-59.94Q48.83-57.47 49.68-54.93L49.68-54.93L49.68-54.93Q50.54-52.39 50.81-50.05L50.81-50.05L50.81-50.05Q51.07-47.71 51.07-46.00L51.07-46.00L51.07-46.00Q51.07-45.26 50.95-44.21L50.95-44.21L50.95-44.21Q50.83-43.16 50.10-42.19L50.10-42.19L50.10-42.19Q49.37-41.21 47.78-40.53L47.78-40.53L47.78-40.53Q46.19-39.84 43.26-39.84L43.26-39.84L43.26-39.84Q42.29-39.84 40.82-39.97L40.82-39.97L40.82-39.97Q39.36-40.09 37.99-40.60L37.99-40.60L37.99-40.60Q36.62-41.11 35.64-42.07L35.64-42.07L35.64-42.07Q34.67-43.02 34.67-44.73L34.67-44.73L34.67-44.73Q34.67-47.36 34.35-49.46L34.35-49.46L34.35-49.46Q34.03-51.56 33.20-53.03L33.20-53.03L33.20-53.03Q32.37-54.49 30.91-55.27L30.91-55.27L30.91-55.27Q29.44-56.05 27.15-56.05L27.15-56.05L27.15-56.05Q24.76-56.05 23.46-55.05L23.46-55.05L23.46-55.05Q22.17-54.05 21.58-52.88L21.58-52.88L21.58-52.88Q20.90-51.46 20.80-49.71L20.80-49.71L20.80-18.75L20.80-18.75Q20.90-16.60 21.58-14.99L21.58-14.99L21.58-14.99Q22.17-13.57 23.46-12.40L23.46-12.40L23.46-12.40Q24.76-11.23 27.15-11.23L27.15-11.23L27.15-11.23Q29.44-11.23 30.91-12.18L30.91-12.18L30.91-12.18Q32.37-13.13 33.20-14.75L33.20-14.75L33.20-14.75Q34.03-16.36 34.35-18.46L34.35-18.46L34.35-18.46Q34.67-20.56 34.67-22.85L34.67-22.85L34.67-22.85Q34.67-23.58 34.91-24.37L34.91-24.37L34.91-24.37Q35.16-25.15 36.04-25.81L36.04-25.81L36.04-25.81Q36.91-26.46 38.62-26.90L38.62-26.90L38.62-26.90Q40.33-27.34 43.26-27.34L43.26-27.34L43.26-27.34Q46.19-27.34 47.78-26.68L47.78-26.68L47.78-26.68Q49.37-26.03 50.10-25.17L50.10-25.17L50.10-25.17Q50.83-24.32 50.95-23.51L50.95-23.51L50.95-23.51Q51.07-22.71 51.07-22.46L51.07-22.46L51.07-22.46Q51.07-17.09 49.27-12.87L49.27-12.87L49.27-12.87Q47.46-8.64 44.17-5.71L44.17-5.71L44.17-5.71Q40.87-2.78 36.30-1.25L36.30-1.25L36.30-1.25Q31.74 0.29 26.27 0.29L26.27 0.29L26.27 0.29Q25.39 0.29 23.41 0.15L23.41 0.15L23.41 0.15Q21.44 0 18.99-0.63L18.99-0.63L18.99-0.63Q16.55-1.27 13.96-2.54L13.96-2.54L13.96-2.54Q11.38-3.81 9.25-6.08L9.25-6.08L9.25-6.08Q7.13-8.35 5.76-11.74L5.76-11.74L5.76-11.74Q4.39-15.14 4.39-20.02L4.39-20.02L4.39-47.27L4.39-47.27Q4.39-51.27 5.37-54.35L5.37-54.35L5.37-54.35Q6.35-57.42 7.93-59.69L7.93-59.69L7.93-59.69Q9.52-61.96 11.57-63.50L11.57-63.50L11.57-63.50Q13.62-65.04 15.77-66.06L15.77-66.06L15.77-66.06Q20.75-68.41 27.15-68.75ZM59.28-19.82L59.28-49.02L59.28-49.02Q59.28-53.71 60.64-57.01L60.64-57.01L60.64-57.01Q62.01-60.30 64.14-62.50L64.14-62.50L64.14-62.50Q66.26-64.70 68.82-65.94L68.82-65.94L68.82-65.94Q71.39-67.19 73.80-67.82L73.80-67.82L73.80-67.82Q76.22-68.46 78.17-68.60L78.17-68.60L78.17-68.60Q80.13-68.75 81.05-68.75L81.05-68.75L82.71-68.75L82.71-68.75Q83.64-68.75 85.60-68.60L85.60-68.60L85.60-68.60Q87.55-68.46 89.94-67.82L89.94-67.82L89.94-67.82Q92.33-67.19 94.90-65.94L94.90-65.94L94.90-65.94Q97.46-64.70 99.54-62.50L99.54-62.50L99.54-62.50Q101.61-60.30 102.95-57.01L102.95-57.01L102.95-57.01Q104.30-53.71 104.30-49.02L104.30-49.02L104.30-19.82L104.30-19.82Q104.30-14.99 102.95-11.62L102.95-11.62L102.95-11.62Q101.61-8.25 99.54-6.01L99.54-6.01L99.54-6.01Q97.46-3.76 94.90-2.47L94.90-2.47L94.90-2.47Q92.33-1.17 89.94-0.54L89.94-0.54L89.94-0.54Q87.55 0.10 85.60 0.24L85.60 0.24L85.60 0.24Q83.64 0.39 82.71 0.39L82.71 0.39L81.05 0.39L81.05 0.39Q80.13 0.39 78.17 0.24L78.17 0.24L78.17 0.24Q76.22 0.10 73.80-0.54L73.80-0.54L73.80-0.54Q71.39-1.17 68.82-2.47L68.82-2.47L68.82-2.47Q66.26-3.76 64.14-6.01L64.14-6.01L64.14-6.01Q62.01-8.25 60.64-11.62L60.64-11.62L60.64-11.62Q59.28-14.99 59.28-19.82L59.28-19.82ZM75.49-49.80L75.49-17.97L75.49-17.97Q75.59-16.16 76.32-14.79L76.32-14.79L76.32-14.79Q76.95-13.57 78.25-12.60L78.25-12.60L78.25-12.60Q79.54-11.62 81.93-11.62L81.93-11.62L81.93-11.62Q84.28-11.62 85.55-12.60L85.55-12.60L85.55-12.60Q86.82-13.57 87.45-14.79L87.45-14.79L87.45-14.79Q88.13-16.16 88.28-17.97L88.28-17.97L88.28-49.80L88.28-49.80Q88.13-51.56 87.45-52.98L87.45-52.98L87.45-52.98Q86.82-54.15 85.55-55.15L85.55-55.15L85.55-55.15Q84.28-56.15 81.93-56.15L81.93-56.15L81.93-56.15Q79.54-56.15 78.25-55.15L78.25-55.15L78.25-55.15Q76.95-54.15 76.32-52.98L76.32-52.98L76.32-52.98Q75.59-51.56 75.49-49.80L75.49-49.80ZM138.48-62.30L154.00-20.21L155.18-20.21L155.18-60.74L155.18-60.74Q155.18-62.30 155.37-63.70L155.37-63.70L155.37-63.70Q155.57-65.09 156.23-66.11L156.23-66.11L156.23-66.11Q156.88-67.14 158.18-67.75L158.18-67.75L158.18-67.75Q159.47-68.36 161.72-68.36L161.72-68.36L161.72-68.36Q164.21-68.36 165.65-67.75L165.65-67.75L165.65-67.75Q167.09-67.14 167.82-66.11L167.82-66.11L167.82-66.11Q168.55-65.09 168.75-63.70L168.75-63.70L168.75-63.70Q168.95-62.30 168.95-60.74L168.95-60.74L168.95-11.23L168.95-11.23Q168.95-9.08 168.82-7.08L168.82-7.08L168.82-7.08Q168.70-5.08 168.04-3.49L168.04-3.49L168.04-3.49Q167.38-1.90 165.89-0.95L165.89-0.95L165.89-0.95Q164.40 0 161.72 0L161.72 0L155.27 0L155.27 0Q152.98 0 151.44-0.90L151.44-0.90L151.44-0.90Q149.90-1.81 148.88-3.10L148.88-3.10L148.88-3.10Q147.85-4.39 147.24-5.81L147.24-5.81L147.24-5.81Q146.63-7.23 146.29-8.20L146.29-8.20L131.54-48.14L130.37-48.14L130.37-7.62L130.37-7.62Q130.37-6.05 130.18-4.66L130.18-4.66L130.18-4.66Q129.98-3.27 129.32-2.25L129.32-2.25L129.32-2.25Q128.66-1.22 127.37-0.61L127.37-0.61L127.37-0.61Q126.07 0 123.83 0L123.83 0L123.83 0Q121.29 0 119.82-0.61L119.82-0.61L119.82-0.61Q118.36-1.22 117.63-2.25L117.63-2.25L117.63-2.25Q116.89-3.27 116.70-4.66L116.70-4.66L116.70-4.66Q116.50-6.05 116.50-7.62L116.50-7.62L116.50-57.13L116.50-57.13Q116.50-59.23 116.63-61.25L116.63-61.25L116.63-61.25Q116.75-63.28 117.43-64.87L117.43-64.87L117.43-64.87Q118.12-66.46 119.60-67.41L119.60-67.41L119.60-67.41Q121.09-68.36 123.83-68.36L123.83-68.36L130.27-68.36L130.27-68.36Q132.71-68.36 134.25-67.41L134.25-67.41L134.25-67.41Q135.79-66.46 136.77-65.33L136.77-65.33L136.77-65.33Q137.84-64.01 138.48-62.30L138.48-62.30ZM187.30-68.36L212.11-68.36L212.11-68.36Q214.06-68.36 216.04-68.21L216.04-68.21L216.04-68.21Q218.02-68.07 219.63-67.38L219.63-67.38L219.63-67.38Q221.24-66.70 222.24-65.31L222.24-65.31L222.24-65.31Q223.24-63.92 223.24-61.43L223.24-61.43L223.24-61.43Q223.24-58.98 222.24-57.59L222.24-57.59L222.24-57.59Q221.24-56.20 219.63-55.52L219.63-55.52L219.63-55.52Q218.02-54.83 216.04-54.66L216.04-54.66L216.04-54.66Q214.06-54.49 212.11-54.49L212.11-54.49L207.13-54.49L207.13-11.13L207.13-11.13Q207.13-9.03 207.01-7.03L207.01-7.03L207.01-7.03Q206.88-5.03 206.20-3.47L206.20-3.47L206.20-3.47Q205.52-1.90 204.00-0.95L204.00-0.95L204.00-0.95Q202.49 0 199.71 0L199.71 0L199.71 0Q196.92 0 195.41-0.95L195.41-0.95L195.41-0.95Q193.90-1.90 193.21-3.47L193.21-3.47L193.21-3.47Q192.53-5.03 192.41-7.03L192.41-7.03L192.41-7.03Q192.29-9.03 192.29-11.13L192.29-11.13L192.29-54.49L187.30-54.49L187.30-54.49Q185.35-54.49 183.37-54.66L183.37-54.66L183.37-54.66Q181.40-54.83 179.79-55.52L179.79-55.52L179.79-55.52Q178.17-56.20 177.17-57.59L177.17-57.59L177.17-57.59Q176.17-58.98 176.17-61.43L176.17-61.43L176.17-61.43Q176.17-63.92 177.17-65.31L177.17-65.31L177.17-65.31Q178.17-66.70 179.79-67.38L179.79-67.38L179.79-67.38Q181.40-68.07 183.37-68.21L183.37-68.21L183.37-68.21Q185.35-68.36 187.30-68.36L187.30-68.36ZM250.10-55.66L242.87-29.49L258.40-29.49L251.17-55.66L250.10-55.66ZM263.38-59.18L273.54-24.71L273.54-24.71Q273.63-21.39 273.78-17.92L273.78-17.92L273.78-17.92Q273.93-14.45 273.93-11.23L273.93-11.23L273.93-9.77L273.93-9.77Q273.93-7.91 273.80-6.18L273.80-6.18L273.80-6.18Q273.68-4.44 273.05-3.05L273.05-3.05L273.05-3.05Q272.41-1.66 271.04-0.83L271.04-0.83L271.04-0.83Q269.68 0 267.19 0L267.19 0L267.19 0Q264.65 0 263.28-0.83L263.28-0.83L263.28-0.83Q261.91-1.66 261.25-3.03L261.25-3.03L261.25-3.03Q260.60-4.39 260.47-6.15L260.47-6.15L260.47-6.15Q260.35-7.91 260.35-9.77L260.35-9.77L260.35-16.60L240.82-16.60L240.82-9.77L240.82-9.77Q240.82-7.91 240.70-6.15L240.70-6.15L240.70-6.15Q240.58-4.39 239.92-3.03L239.92-3.03L239.92-3.03Q239.26-1.66 237.89-0.83L237.89-0.83L237.89-0.83Q236.52 0 233.98 0L233.98 0L233.98 0Q231.45 0 230.08-0.83L230.08-0.83L230.08-0.83Q228.71-1.66 228.08-3.05L228.08-3.05L228.08-3.05Q227.44-4.44 227.34-6.18L227.34-6.18L227.34-6.18Q227.25-7.91 227.25-9.77L227.25-9.77L227.25-11.23L227.25-11.23Q227.25-12.74 227.27-14.45L227.27-14.45L227.27-14.45Q227.29-16.16 227.34-17.92L227.34-17.92L227.34-17.92Q227.39-19.68 227.44-21.41L227.44-21.41L227.44-21.41Q227.49-23.14 227.54-24.71L227.54-24.71L227.54-24.71Q229.98-33.20 232.67-41.92L232.67-41.92L232.67-41.92Q235.35-50.63 237.79-59.18L237.79-59.18L237.79-59.18Q238.28-60.99 238.96-62.67L238.96-62.67L238.96-62.67Q239.65-64.36 240.77-65.60L240.77-65.60L240.77-65.60Q241.89-66.85 243.65-67.60L243.65-67.60L243.65-67.60Q245.41-68.36 248.14-68.36L248.14-68.36L253.03-68.36L253.03-68.36Q255.71-68.36 257.50-67.60L257.50-67.60L257.50-67.60Q259.28-66.85 260.40-65.60L260.40-65.60L260.40-65.60Q261.52-64.36 262.18-62.67L262.18-62.67L262.18-62.67Q262.84-60.99 263.38-59.18L263.38-59.18ZM304.69-68.75L304.69-68.75L304.69-68.75Q310.06-68.75 313.94-67.53L313.94-67.53L313.94-67.53Q317.82-66.31 320.48-64.36L320.48-64.36L320.48-64.36Q323.14-62.40 324.76-59.94L324.76-59.94L324.76-59.94Q326.37-57.47 327.22-54.93L327.22-54.93L327.22-54.93Q328.08-52.39 328.34-50.05L328.34-50.05L328.34-50.05Q328.61-47.71 328.61-46.00L328.61-46.00L328.61-46.00Q328.61-45.26 328.49-44.21L328.49-44.21L328.49-44.21Q328.37-43.16 327.64-42.19L327.64-42.19L327.64-42.19Q326.90-41.21 325.32-40.53L325.32-40.53L325.32-40.53Q323.73-39.84 320.80-39.84L320.80-39.84L320.80-39.84Q319.82-39.84 318.36-39.97L318.36-39.97L318.36-39.97Q316.89-40.09 315.53-40.60L315.53-40.60L315.53-40.60Q314.16-41.11 313.18-42.07L313.18-42.07L313.18-42.07Q312.21-43.02 312.21-44.73L312.21-44.73L312.21-44.73Q312.21-47.36 311.89-49.46L311.89-49.46L311.89-49.46Q311.57-51.56 310.74-53.03L310.74-53.03L310.74-53.03Q309.91-54.49 308.45-55.27L308.45-55.27L308.45-55.27Q306.98-56.05 304.69-56.05L304.69-56.05L304.69-56.05Q302.29-56.05 301.00-55.05L301.00-55.05L301.00-55.05Q299.71-54.05 299.12-52.88L299.12-52.88L299.12-52.88Q298.44-51.46 298.34-49.71L298.34-49.71L298.34-18.75L298.34-18.75Q298.44-16.60 299.12-14.99L299.12-14.99L299.12-14.99Q299.71-13.57 301.00-12.40L301.00-12.40L301.00-12.40Q302.29-11.23 304.69-11.23L304.69-11.23L304.69-11.23Q306.98-11.23 308.45-12.18L308.45-12.18L308.45-12.18Q309.91-13.13 310.74-14.75L310.74-14.75L310.74-14.75Q311.57-16.36 311.89-18.46L311.89-18.46L311.89-18.46Q312.21-20.56 312.21-22.85L312.21-22.85L312.21-22.85Q312.21-23.58 312.45-24.37L312.45-24.37L312.45-24.37Q312.70-25.15 313.57-25.81L313.57-25.81L313.57-25.81Q314.45-26.46 316.16-26.90L316.16-26.90L316.16-26.90Q317.87-27.34 320.80-27.34L320.80-27.34L320.80-27.34Q323.73-27.34 325.32-26.68L325.32-26.68L325.32-26.68Q326.90-26.03 327.64-25.17L327.64-25.17L327.64-25.17Q328.37-24.32 328.49-23.51L328.49-23.51L328.49-23.51Q328.61-22.71 328.61-22.46L328.61-22.46L328.61-22.46Q328.61-17.09 326.81-12.87L326.81-12.87L326.81-12.87Q325-8.64 321.70-5.71L321.70-5.71L321.70-5.71Q318.41-2.78 313.84-1.25L313.84-1.25L313.84-1.25Q309.28 0.29 303.81 0.29L303.81 0.29L303.81 0.29Q302.93 0.29 300.95 0.15L300.95 0.15L300.95 0.15Q298.97 0 296.53-0.63L296.53-0.63L296.53-0.63Q294.09-1.27 291.50-2.54L291.50-2.54L291.50-2.54Q288.92-3.81 286.79-6.08L286.79-6.08L286.79-6.08Q284.67-8.35 283.30-11.74L283.30-11.74L283.30-11.74Q281.93-15.14 281.93-20.02L281.93-20.02L281.93-47.27L281.93-47.27Q281.93-51.27 282.91-54.35L282.91-54.35L282.91-54.35Q283.89-57.42 285.47-59.69L285.47-59.69L285.47-59.69Q287.06-61.96 289.11-63.50L289.11-63.50L289.11-63.50Q291.16-65.04 293.31-66.06L293.31-66.06L293.31-66.06Q298.29-68.41 304.69-68.75ZM343.36-68.36L368.16-68.36L368.16-68.36Q370.12-68.36 372.09-68.21L372.09-68.21L372.09-68.21Q374.07-68.07 375.68-67.38L375.68-67.38L375.68-67.38Q377.29-66.70 378.30-65.31L378.30-65.31L378.30-65.31Q379.30-63.92 379.30-61.43L379.30-61.43L379.30-61.43Q379.30-58.98 378.30-57.59L378.30-57.59L378.30-57.59Q377.29-56.20 375.68-55.52L375.68-55.52L375.68-55.52Q374.07-54.83 372.09-54.66L372.09-54.66L372.09-54.66Q370.12-54.49 368.16-54.49L368.16-54.49L363.18-54.49L363.18-11.13L363.18-11.13Q363.18-9.03 363.06-7.03L363.06-7.03L363.06-7.03Q362.94-5.03 362.26-3.47L362.26-3.47L362.26-3.47Q361.57-1.90 360.06-0.95L360.06-0.95L360.06-0.95Q358.54 0 355.76 0L355.76 0L355.76 0Q352.98 0 351.46-0.95L351.46-0.95L351.46-0.95Q349.95-1.90 349.27-3.47L349.27-3.47L349.27-3.47Q348.58-5.03 348.46-7.03L348.46-7.03L348.46-7.03Q348.34-9.03 348.34-11.13L348.34-11.13L348.34-54.49L343.36-54.49L343.36-54.49Q341.41-54.49 339.43-54.66L339.43-54.66L339.43-54.66Q337.45-54.83 335.84-55.52L335.84-55.52L335.84-55.52Q334.23-56.20 333.23-57.59L333.23-57.59L333.23-57.59Q332.23-58.98 332.23-61.43L332.23-61.43L332.23-61.43Q332.23-63.92 333.23-65.31L333.23-65.31L333.23-65.31Q334.23-66.70 335.84-67.38L335.84-67.38L335.84-67.38Q337.45-68.07 339.43-68.21L339.43-68.21L339.43-68.21Q341.41-68.36 343.36-68.36L343.36-68.36Z" fill="#90caf9"></path></g></g><style>text {
  font-size: 64px;
  font-family: Arial Black;
  dominant-baseline: central;
  text-anchor: middle;
}</style></svg>