<svg width="343.68004150390624px" height="180.35258178710936px" xmlns="http://www.w3.org/2000/svg" viewBox="78.15997924804688 -15.176290893554679 343.68004150390624 180.35258178710936" style="background: rgba(0, 0, 0, 0);" preserveAspectRatio="xMidYMid"><defs><filter id="editing-hole" x="-100%" y="-100%" width="300%" height="300%"><feFlood flood-color="#90caf9" result="black"></feFlood><feMorphology operator="dilate" radius="2" in="SourceGraphic" result="erode"></feMorphology><feGaussianBlur in="erode" stdDeviation="4" result="blur"></feGaussianBlur><feOffset in="blur" dx="2" dy="2" result="offset"></feOffset><feComposite operator="atop" in="offset" in2="black" result="merge"></feComposite><feComposite operator="in" in="merge" in2="SourceGraphic" result="inner-shadow"></feComposite></filter></defs><g filter="url(#editing-hole)"><g transform="translate(129.24499988555908, 109.56999969482422)"><path d="M7.13-11.23L7.13-57.13L7.13-57.13Q7.13-59.23 7.32-61.23L7.32-61.23L7.32-61.23Q7.52-63.23 8.28-64.82L8.28-64.82L8.28-64.82Q9.03-66.41 10.50-67.38L10.50-67.38L10.50-67.38Q11.96-68.36 14.55-68.36L14.55-68.36L14.55-68.36Q17.09-68.36 18.58-67.38L18.58-67.38L18.58-67.38Q20.07-66.41 20.83-64.82L20.83-64.82L20.83-64.82Q21.58-63.23 21.78-61.23L21.78-61.23L21.78-61.23Q21.97-59.23 21.97-57.13L21.97-57.13L21.97-41.80L35.35-41.80L35.35-57.13L35.35-57.13Q35.35-59.23 35.55-61.23L35.55-61.23L35.55-61.23Q35.74-63.23 36.50-64.82L36.50-64.82L36.50-64.82Q37.26-66.41 38.72-67.38L38.72-67.38L38.72-67.38Q40.19-68.36 42.77-68.36L42.77-68.36L42.77-68.36Q45.31-68.36 46.80-67.38L46.80-67.38L46.80-67.38Q48.29-66.41 49.05-64.82L49.05-64.82L49.05-64.82Q49.80-63.23 50-61.23L50-61.23L50-61.23Q50.20-59.23 50.20-57.13L50.20-57.13L50.20-11.23L50.20-11.23Q50.20-9.08 50-7.08L50-7.08L50-7.08Q49.80-5.08 49.05-3.49L49.05-3.49L49.05-3.49Q48.29-1.90 46.80-0.95L46.80-0.95L46.80-0.95Q45.31 0 42.77 0L42.77 0L42.77 0Q40.19 0 38.72-0.95L38.72-0.95L38.72-0.95Q37.26-1.90 36.50-3.49L36.50-3.49L36.50-3.49Q35.74-5.08 35.55-7.08L35.55-7.08L35.55-7.08Q35.35-9.08 35.35-11.23L35.35-11.23L35.35-27.44L21.97-27.44L21.97-11.23L21.97-11.23Q21.97-9.08 21.78-7.08L21.78-7.08L21.78-7.08Q21.58-5.08 20.83-3.49L20.83-3.49L20.83-3.49Q20.07-1.90 18.58-0.95L18.58-0.95L18.58-0.95Q17.09 0 14.55 0L14.55 0L14.55 0Q11.96 0 10.50-0.95L10.50-0.95L10.50-0.95Q9.03-1.90 8.28-3.49L8.28-3.49L8.28-3.49Q7.52-5.08 7.32-7.08L7.32-7.08L7.32-7.08Q7.13-9.08 7.13-11.23L7.13-11.23ZM62.01-19.82L62.01-49.02L62.01-49.02Q62.01-53.71 63.38-57.01L63.38-57.01L63.38-57.01Q64.75-60.30 66.87-62.50L66.87-62.50L66.87-62.50Q68.99-64.70 71.56-65.94L71.56-65.94L71.56-65.94Q74.12-67.19 76.54-67.82L76.54-67.82L76.54-67.82Q78.96-68.46 80.91-68.60L80.91-68.60L80.91-68.60Q82.86-68.75 83.79-68.75L83.79-68.75L85.45-68.75L85.45-68.75Q86.38-68.75 88.33-68.60L88.33-68.60L88.33-68.60Q90.28-68.46 92.68-67.82L92.68-67.82L92.68-67.82Q95.07-67.19 97.63-65.94L97.63-65.94L97.63-65.94Q100.20-64.70 102.27-62.50L102.27-62.50L102.27-62.50Q104.35-60.30 105.69-57.01L105.69-57.01L105.69-57.01Q107.03-53.71 107.03-49.02L107.03-49.02L107.03-19.82L107.03-19.82Q107.03-14.99 105.69-11.62L105.69-11.62L105.69-11.62Q104.35-8.25 102.27-6.01L102.27-6.01L102.27-6.01Q100.20-3.76 97.63-2.47L97.63-2.47L97.63-2.47Q95.07-1.17 92.68-0.54L92.68-0.54L92.68-0.54Q90.28 0.10 88.33 0.24L88.33 0.24L88.33 0.24Q86.38 0.39 85.45 0.39L85.45 0.39L83.79 0.39L83.79 0.39Q82.86 0.39 80.91 0.24L80.91 0.24L80.91 0.24Q78.96 0.10 76.54-0.54L76.54-0.54L76.54-0.54Q74.12-1.17 71.56-2.47L71.56-2.47L71.56-2.47Q68.99-3.76 66.87-6.01L66.87-6.01L66.87-6.01Q64.75-8.25 63.38-11.62L63.38-11.62L63.38-11.62Q62.01-14.99 62.01-19.82L62.01-19.82ZM78.22-49.80L78.22-17.97L78.22-17.97Q78.32-16.16 79.05-14.79L79.05-14.79L79.05-14.79Q79.69-13.57 80.98-12.60L80.98-12.60L80.98-12.60Q82.28-11.62 84.67-11.62L84.67-11.62L84.67-11.62Q87.01-11.62 88.28-12.60L88.28-12.60L88.28-12.60Q89.55-13.57 90.19-14.79L90.19-14.79L90.19-14.79Q90.87-16.16 91.02-17.97L91.02-17.97L91.02-49.80L91.02-49.80Q90.87-51.56 90.19-52.98L90.19-52.98L90.19-52.98Q89.55-54.15 88.28-55.15L88.28-55.15L88.28-55.15Q87.01-56.15 84.67-56.15L84.67-56.15L84.67-56.15Q82.28-56.15 80.98-55.15L80.98-55.15L80.98-55.15Q79.69-54.15 79.05-52.98L79.05-52.98L79.05-52.98Q78.32-51.56 78.22-49.80L78.22-49.80ZM151.27-15.82L150.29-15.82L150.29-15.82Q148.88-15.82 147.88-16.36L147.88-16.36L147.88-16.36Q146.88-16.89 146.14-17.72L146.14-17.72L146.14-17.72Q145.41-18.55 144.90-19.58L144.90-19.58L144.90-19.58Q144.38-20.61 144.04-21.58L144.04-21.58L134.77-48.34L133.50-48.34L133.50-7.62L133.50-7.62Q133.50-6.05 133.30-4.69L133.30-4.69L133.30-4.69Q133.11-3.32 132.45-2.27L132.45-2.27L132.45-2.27Q131.79-1.22 130.49-0.61L130.49-0.61L130.49-0.61Q129.20 0 126.95 0L126.95 0L126.95 0Q124.41 0 122.95-0.61L122.95-0.61L122.95-0.61Q121.48-1.22 120.75-2.27L120.75-2.27L120.75-2.27Q120.02-3.32 119.82-4.69L119.82-4.69L119.82-4.69Q119.63-6.05 119.63-7.62L119.63-7.62L119.63-57.23L119.63-57.23Q119.63-59.33 119.75-61.33L119.75-61.33L119.75-61.33Q119.87-63.33 120.56-64.89L120.56-64.89L120.56-64.89Q121.24-66.46 122.73-67.41L122.73-67.41L122.73-67.41Q124.22-68.36 126.95-68.36L126.95-68.36L133.59-68.36L133.59-68.36Q135.25-68.36 136.40-68.24L136.40-68.24L136.40-68.24Q137.55-68.12 138.53-67.41L138.53-67.41L138.53-67.41Q139.50-66.70 140.45-65.14L140.45-65.14L140.45-65.14Q141.41-63.57 142.55-60.72L142.55-60.72L142.55-60.72Q143.70-57.86 145.21-53.44L145.21-53.44L145.21-53.44Q146.73-49.02 148.93-42.58L148.93-42.58L150.20-38.67L151.37-38.67L152.93-43.55L152.93-43.55Q154.93-49.71 156.35-53.96L156.35-53.96L156.35-53.96Q157.76-58.20 158.84-60.96L158.84-60.96L158.84-60.96Q159.91-63.72 160.77-65.21L160.77-65.21L160.77-65.21Q161.62-66.70 162.57-67.41L162.57-67.41L162.57-67.41Q163.53-68.12 164.65-68.24L164.65-68.24L164.65-68.24Q165.77-68.36 167.38-68.36L167.38-68.36L174.51-68.36L174.51-68.36Q177.25-68.36 178.74-67.41L178.74-67.41L178.74-67.41Q180.22-66.46 180.91-64.89L180.91-64.89L180.91-64.89Q181.59-63.33 181.71-61.33L181.71-61.33L181.71-61.33Q181.84-59.33 181.84-57.23L181.84-57.23L181.84-7.62L181.84-7.62Q181.84-6.05 181.64-4.69L181.64-4.69L181.64-4.69Q181.45-3.32 180.71-2.27L180.71-2.27L180.71-2.27Q179.98-1.22 178.52-0.61L178.52-0.61L178.52-0.61Q177.05 0 174.51 0L174.51 0L174.51 0Q172.27 0 170.97-0.61L170.97-0.61L170.97-0.61Q169.68-1.22 169.02-2.27L169.02-2.27L169.02-2.27Q168.36-3.32 168.16-4.69L168.16-4.69L168.16-4.69Q167.97-6.05 167.97-7.62L167.97-7.62L167.97-48.34L166.60-48.34L157.42-21.58L157.42-21.58Q157.03-20.61 156.54-19.58L156.54-19.58L156.54-19.58Q156.05-18.55 155.32-17.72L155.32-17.72L155.32-17.72Q154.59-16.89 153.61-16.36L153.61-16.36L153.61-16.36Q152.64-15.82 151.27-15.82L151.27-15.82ZM204.00-68.36L223.14-68.36L223.14-68.36Q225.10-68.36 227.10-68.21L227.10-68.21L227.10-68.21Q229.10-68.07 230.71-67.38L230.71-67.38L230.71-67.38Q232.32-66.70 233.35-65.31L233.35-65.31L233.35-65.31Q234.38-63.92 234.38-61.43L234.38-61.43L234.38-61.43Q234.38-58.94 233.35-57.54L233.35-57.54L233.35-57.54Q232.32-56.15 230.71-55.47L230.71-55.47L230.71-55.47Q229.10-54.79 227.10-54.64L227.10-54.64L227.10-54.64Q225.10-54.49 223.14-54.49L223.14-54.49L211.52-54.49L211.52-41.21L217.68-41.21L217.68-41.21Q219.63-41.21 221.61-41.09L221.61-41.09L221.61-41.09Q223.58-40.97 225.12-40.31L225.12-40.31L225.12-40.31Q226.66-39.65 227.64-38.31L227.64-38.31L227.64-38.31Q228.61-36.96 228.61-34.57L228.61-34.57L228.61-34.57Q228.61-32.13 227.64-30.81L227.64-30.81L227.64-30.81Q226.66-29.49 225.12-28.83L225.12-28.83L225.12-28.83Q223.58-28.17 221.61-28.05L221.61-28.05L221.61-28.05Q219.63-27.93 217.68-27.93L217.68-27.93L211.52-27.93L211.52-13.87L223.14-13.87L223.14-13.87Q225.10-13.87 227.10-13.72L227.10-13.72L227.10-13.72Q229.10-13.57 230.71-12.92L230.71-12.92L230.71-12.92Q232.32-12.26 233.35-10.86L233.35-10.86L233.35-10.86Q234.38-9.47 234.38-7.03L234.38-7.03L234.38-7.03Q234.38-4.49 233.33-3.08L233.33-3.08L233.33-3.08Q232.28-1.66 230.66-0.98L230.66-0.98L230.66-0.98Q229.05-0.29 227.05-0.15L227.05-0.15L227.05-0.15Q225.05 0 223.14 0L223.14 0L204.00 0L204.00 0Q201.27 0 199.78-0.98L199.78-0.98L199.78-0.98Q198.29-1.95 197.61-3.54L197.61-3.54L197.61-3.54Q196.92-5.13 196.80-7.13L196.80-7.13L196.80-7.13Q196.68-9.13 196.68-11.23L196.68-11.23L196.68-57.13L196.68-57.13Q196.68-59.23 196.80-61.23L196.80-61.23L196.80-61.23Q196.92-63.23 197.61-64.82L197.61-64.82L197.61-64.82Q198.29-66.41 199.78-67.38L199.78-67.38L199.78-67.38Q201.27-68.36 204.00-68.36L204.00-68.36Z" fill="#90caf9"></path></g></g><style>text {
  font-size: 64px;
  font-family: Arial Black;
  dominant-baseline: central;
  text-anchor: middle;
}</style></svg>