<svg width="549.2949951171875px" height="168.835009765625px" xmlns="http://www.w3.org/2000/svg" viewBox="-24.647497558593727 -9.417504882812494 549.2949951171875 168.835009765625" style="background: rgba(0, 0, 0, 0);" preserveAspectRatio="xMidYMid"><defs><filter id="editing-hole" x="-100%" y="-100%" width="300%" height="300%"><feFlood flood-color="#90caf9" result="black"></feFlood><feMorphology operator="dilate" radius="2" in="SourceGraphic" result="erode"></feMorphology><feGaussianBlur in="erode" stdDeviation="4" result="blur"></feGaussianBlur><feOffset in="blur" dx="2" dy="2" result="offset"></feOffset><feComposite operator="atop" in="offset" in2="black" result="merge"></feComposite><feComposite operator="in" in="merge" in2="SourceGraphic" result="inner-shadow"></feComposite></filter></defs><g filter="url(#editing-hole)"><g transform="translate(53.64500141143799, 107.14999771118164)"><path d="M26.07-25.07L20.25-25.07L20.25-10.35L20.25-10.35Q20.25-8.40 20.14-6.54L20.14-6.54L20.14-6.54Q20.03-4.68 19.37-3.22L19.37-3.22L19.37-3.22Q18.71-1.77 17.30-0.89L17.30-0.89L17.30-0.89Q15.89 0 13.26 0L13.26 0L13.26 0Q10.72 0 9.33-0.89L9.33-0.89L9.33-0.89Q7.95-1.77 7.31-3.22L7.31-3.22L7.31-3.22Q6.68-4.68 6.56-6.54L6.56-6.54L6.56-6.54Q6.45-8.40 6.45-10.35L6.45-10.35L6.45-53.22L6.45-53.22Q6.45-55.17 6.56-57.04L6.56-57.04L6.56-57.04Q6.68-58.90 7.31-60.35L7.31-60.35L7.31-60.35Q7.95-61.80 9.33-62.69L9.33-62.69L9.33-62.69Q10.72-63.57 13.26-63.57L13.26-63.57L28.25-63.57L28.25-63.57Q33.88-63.30 38.33-61.21L38.33-61.21L38.33-61.21Q40.23-60.30 42.03-58.94L42.03-58.94L42.03-58.94Q43.82-57.58 45.25-55.60L45.25-55.60L45.25-55.60Q46.68-53.63 47.54-50.93L47.54-50.93L47.54-50.93Q48.41-48.23 48.41-44.68L48.41-44.68L48.41-44.68Q48.41-39.82 46.89-36.17L46.89-36.17L46.89-36.17Q45.36-32.51 42.48-30.04L42.48-30.04L42.48-30.04Q39.60-27.56 35.44-26.32L35.44-26.32L35.44-26.32Q31.29-25.07 26.07-25.07L26.07-25.07ZM20.25-35.87L26.43-35.87L26.43-35.87Q28.70-36.01 30.52-36.96L30.52-36.96L30.52-36.96Q31.29-37.37 32.01-38.01L32.01-38.01L32.01-38.01Q32.74-38.64 33.33-39.57L33.33-39.57L33.33-39.57Q33.92-40.51 34.26-41.78L34.26-41.78L34.26-41.78Q34.60-43.05 34.60-44.68L34.60-44.68L34.60-44.68Q34.60-46.23 34.26-47.39L34.26-47.39L34.26-47.39Q33.92-48.54 33.38-49.38L33.38-49.38L33.38-49.38Q32.83-50.22 32.15-50.81L32.15-50.81L32.15-50.81Q31.47-51.40 30.74-51.81L30.74-51.81L30.74-51.81Q29.02-52.68 26.88-52.86L26.88-52.86L20.25-52.86L20.25-35.87ZM55.58-10.54L55.58-53.22L55.58-53.22Q55.58-55.17 55.70-57.04L55.70-57.04L55.70-57.04Q55.81-58.90 56.44-60.35L56.44-60.35L56.44-60.35Q57.08-61.80 58.47-62.69L58.47-62.69L58.47-62.69Q59.85-63.57 62.39-63.57L62.39-63.57L77.38-63.57L77.38-63.57Q82.96-63.30 87.37-61.21L87.37-61.21L87.37-61.21Q89.23-60.30 91.02-58.97L91.02-58.97L91.02-58.97Q92.82-57.63 94.23-55.65L94.23-55.65L94.23-55.65Q95.63-53.67 96.50-51.00L96.50-51.00L96.50-51.00Q97.36-48.32 97.36-44.77L97.36-44.77L97.36-44.77Q97.36-44.05 97.22-42.84L97.22-42.84L97.22-42.84Q97.09-41.64 96.63-40.21L96.63-40.21L96.63-40.21Q96.18-38.78 95.41-37.24L95.41-37.24L95.41-37.24Q94.63-35.69 93.36-34.28L93.36-34.28L93.36-34.28Q92.09-32.88 90.25-31.70L90.25-31.70L90.25-31.70Q88.41-30.52 85.92-29.79L85.92-29.79L85.92-29.79Q87.51-29.15 89.14-28.13L89.14-28.13L89.14-28.13Q90.77-27.11 92.09-25.52L92.09-25.52L92.09-25.52Q93.41-23.93 94.25-21.71L94.25-21.71L94.25-21.71Q95.09-19.48 95.09-16.53L95.09-16.53L95.09-10.08L95.09-10.08Q95.09-9.54 95.36-9.17L95.36-9.17L95.36-9.17Q95.63-8.81 95.91-8.54L95.91-8.54L95.91-8.54Q97.00-7.45 97.18-6.65L97.18-6.65L97.18-6.65Q97.36-5.86 97.36-5.36L97.36-5.36L97.36-5.36Q97.36-3.77 96.72-2.68L96.72-2.68L96.72-2.68Q96.09-1.59 95.07-0.91L95.07-0.91L95.07-0.91Q94.04-0.23 92.75 0.07L92.75 0.07L92.75 0.07Q91.46 0.36 90.09 0.36L90.09 0.36L90.09 0.36Q88.60 0.36 87.05-0.11L87.05-0.11L87.05-0.11Q85.51-0.59 84.24-1.50L84.24-1.50L84.24-1.50Q82.96-2.41 82.17-3.77L82.17-3.77L82.17-3.77Q81.38-5.13 81.38-6.90L81.38-6.90L81.38-16.53L81.38-16.53Q81.38-18.53 81.10-20.21L81.10-20.21L81.10-20.21Q80.83-21.89 80.06-23.11L80.06-23.11L80.06-23.11Q79.29-24.34 77.92-25.02L77.92-25.02L77.92-25.02Q76.56-25.70 74.38-25.70L74.38-25.70L69.30-25.70L69.30-10.54L69.30-10.54Q69.30-8.54 69.18-6.63L69.18-6.63L69.18-6.63Q69.07-4.72 68.43-3.25L68.43-3.25L68.43-3.25Q67.80-1.77 66.39-0.89L66.39-0.89L66.39-0.89Q64.98 0 62.39 0L62.39 0L62.39 0Q59.85 0 58.47-0.89L58.47-0.89L58.47-0.89Q57.08-1.77 56.44-3.25L56.44-3.25L56.44-3.25Q55.81-4.72 55.70-6.63L55.70-6.63L55.70-6.63Q55.58-8.54 55.58-10.54L55.58-10.54ZM69.30-35.87L75.47-35.87L75.47-35.87Q77.74-35.96 79.56-36.96L79.56-36.96L79.56-36.96Q80.33-37.37 81.06-38.01L81.06-38.01L81.06-38.01Q81.78-38.64 82.37-39.60L82.37-39.60L82.37-39.60Q82.96-40.55 83.30-41.82L83.30-41.82L83.30-41.82Q83.65-43.09 83.65-44.77L83.65-44.77L83.65-44.77Q83.65-46.27 83.30-47.43L83.30-47.43L83.30-47.43Q82.96-48.59 82.42-49.45L82.42-49.45L82.42-49.45Q81.87-50.31 81.17-50.90L81.17-50.90L81.17-50.90Q80.47-51.50 79.74-51.86L79.74-51.86L79.74-51.86Q78.01-52.72 75.83-52.86L75.83-52.86L69.30-52.86L69.30-35.87ZM105.71-18.44L105.71-45.59L105.71-45.59Q105.71-49.95 106.99-53.02L106.99-53.02L106.99-53.02Q108.26-56.08 110.23-58.13L110.23-58.13L110.23-58.13Q112.21-60.17 114.59-61.33L114.59-61.33L114.59-61.33Q116.98-62.48 119.22-63.07L119.22-63.07L119.22-63.07Q121.47-63.67 123.29-63.80L123.29-63.80L123.29-63.80Q125.10-63.94 125.97-63.94L125.97-63.94L127.51-63.94L127.51-63.94Q128.37-63.94 130.19-63.80L130.19-63.80L130.19-63.80Q132.01-63.67 134.23-63.07L134.23-63.07L134.23-63.07Q136.46-62.48 138.84-61.33L138.84-61.33L138.84-61.33Q141.23-60.17 143.16-58.13L143.16-58.13L143.16-58.13Q145.09-56.08 146.33-53.02L146.33-53.02L146.33-53.02Q147.58-49.95 147.58-45.59L147.58-45.59L147.58-18.44L147.58-18.44Q147.58-13.94 146.33-10.81L146.33-10.81L146.33-10.81Q145.09-7.67 143.16-5.59L143.16-5.59L143.16-5.59Q141.23-3.50 138.84-2.29L138.84-2.29L138.84-2.29Q136.46-1.09 134.23-0.50L134.23-0.50L134.23-0.50Q132.01 0.09 130.19 0.23L130.19 0.23L130.19 0.23Q128.37 0.36 127.51 0.36L127.51 0.36L125.97 0.36L125.97 0.36Q125.10 0.36 123.29 0.23L123.29 0.23L123.29 0.23Q121.47 0.09 119.22-0.50L119.22-0.50L119.22-0.50Q116.98-1.09 114.59-2.29L114.59-2.29L114.59-2.29Q112.21-3.50 110.23-5.59L110.23-5.59L110.23-5.59Q108.26-7.67 106.99-10.81L106.99-10.81L106.99-10.81Q105.71-13.94 105.71-18.44L105.71-18.44ZM120.79-46.32L120.79-16.71L120.79-16.71Q120.88-15.03 121.56-13.76L121.56-13.76L121.56-13.76Q122.15-12.62 123.36-11.72L123.36-11.72L123.36-11.72Q124.56-10.81 126.79-10.81L126.79-10.81L126.79-10.81Q128.96-10.81 130.15-11.72L130.15-11.72L130.15-11.72Q131.33-12.62 131.92-13.76L131.92-13.76L131.92-13.76Q132.55-15.03 132.69-16.71L132.69-16.71L132.69-46.32L132.69-46.32Q132.55-47.95 131.92-49.27L131.92-49.27L131.92-49.27Q131.33-50.36 130.15-51.29L130.15-51.29L130.15-51.29Q128.96-52.22 126.79-52.22L126.79-52.22L126.79-52.22Q124.56-52.22 123.36-51.29L123.36-51.29L123.36-51.29Q122.15-50.36 121.56-49.27L121.56-49.27L121.56-49.27Q120.88-47.95 120.79-46.32L120.79-46.32ZM176.55 0.36L176.55 0.36L176.55 0.36Q171.56 0.36 167.95-0.77L167.95-0.77L167.95-0.77Q164.34-1.91 161.86-3.72L161.86-3.72L161.86-3.72Q159.39-5.54 157.89-7.83L157.89-7.83L157.89-7.83Q156.39-10.13 155.60-12.49L155.60-12.49L155.60-12.49Q154.80-14.85 154.55-17.03L154.55-17.03L154.55-17.03Q154.30-19.21 154.30-20.80L154.30-20.80L154.30-20.80Q154.30-21.48 154.42-22.46L154.42-22.46L154.42-22.46Q154.53-23.43 155.21-24.34L155.21-24.34L155.21-24.34Q155.89-25.25 157.37-25.88L157.37-25.88L157.37-25.88Q158.84-26.52 161.57-26.52L161.57-26.52L161.57-26.52Q162.48-26.52 163.84-26.41L163.84-26.41L163.84-26.41Q165.20-26.29 166.47-25.82L166.47-25.82L166.47-25.82Q167.75-25.34 168.65-24.43L168.65-24.43L168.65-24.43Q169.56-23.52 169.56-21.98L169.56-21.98L169.56-21.98Q169.56-19.53 169.86-17.57L169.86-17.57L169.86-17.57Q170.15-15.62 170.92-14.26L170.92-14.26L170.92-14.26Q171.70-12.90 173.06-12.17L173.06-12.17L173.06-12.17Q174.42-11.44 176.55-11.44L176.55-11.44L176.55-11.44Q178.78-11.44 179.98-12.35L179.98-12.35L179.98-12.35Q181.19-13.26 181.73-14.40L181.73-14.40L181.73-14.40Q182.37-15.67 182.46-17.35L182.46-17.35L182.46-50.68L170.56-50.68L170.56-50.68Q168.74-50.68 166.93-50.86L166.93-50.86L166.93-50.86Q165.11-51.04 163.64-51.68L163.64-51.68L163.64-51.68Q162.16-52.31 161.23-53.58L161.23-53.58L161.23-53.58Q160.30-54.86 160.30-57.04L160.30-57.04L160.30-57.04Q160.30-59.26 161.23-60.58L161.23-60.58L161.23-60.58Q162.16-61.89 163.64-62.55L163.64-62.55L163.64-62.55Q165.11-63.21 166.93-63.39L166.93-63.39L166.93-63.39Q168.74-63.57 170.56-63.57L170.56-63.57L189.09-63.57L189.09-63.57Q191.68-63.57 193.20-62.67L193.20-62.67L193.20-62.67Q194.72-61.76 195.49-60.28L195.49-60.28L195.49-60.28Q196.26-58.81 196.49-56.94L196.49-56.94L196.49-56.94Q196.72-55.08 196.72-53.13L196.72-53.13L196.72-18.62L196.72-18.62Q196.72-13.90 195.35-10.63L195.35-10.63L195.35-10.63Q193.99-7.36 191.93-5.24L191.93-5.24L191.93-5.24Q189.86-3.13 187.39-2.00L187.39-2.00L187.39-2.00Q184.91-0.86 182.66-0.34L182.66-0.34L182.66-0.34Q180.41 0.18 178.73 0.27L178.73 0.27L178.73 0.27Q177.05 0.36 176.55 0.36ZM216.52-63.57L234.32-63.57L234.32-63.57Q236.13-63.57 237.99-63.44L237.99-63.44L237.99-63.44Q239.86-63.30 241.35-62.67L241.35-62.67L241.35-62.67Q242.85-62.03 243.81-60.74L243.81-60.74L243.81-60.74Q244.76-59.44 244.76-57.13L244.76-57.13L244.76-57.13Q244.76-54.81 243.81-53.52L243.81-53.52L243.81-53.52Q242.85-52.22 241.35-51.59L241.35-51.59L241.35-51.59Q239.86-50.95 237.99-50.81L237.99-50.81L237.99-50.81Q236.13-50.68 234.32-50.68L234.32-50.68L223.51-50.68L223.51-38.33L229.23-38.33L229.23-38.33Q231.05-38.33 232.89-38.21L232.89-38.21L232.89-38.21Q234.73-38.10 236.16-37.49L236.16-37.49L236.16-37.49Q237.59-36.87 238.49-35.62L238.49-35.62L238.49-35.62Q239.40-34.38 239.40-32.15L239.40-32.15L239.40-32.15Q239.40-29.88 238.49-28.65L238.49-28.65L238.49-28.65Q237.59-27.43 236.16-26.81L236.16-26.81L236.16-26.81Q234.73-26.20 232.89-26.09L232.89-26.09L232.89-26.09Q231.05-25.97 229.23-25.97L229.23-25.97L223.51-25.97L223.51-12.90L234.32-12.90L234.32-12.90Q236.13-12.90 237.99-12.76L237.99-12.76L237.99-12.76Q239.86-12.62 241.35-12.01L241.35-12.01L241.35-12.01Q242.85-11.40 243.81-10.10L243.81-10.10L243.81-10.10Q244.76-8.81 244.76-6.54L244.76-6.54L244.76-6.54Q244.76-4.18 243.78-2.86L243.78-2.86L243.78-2.86Q242.81-1.54 241.31-0.91L241.31-0.91L241.31-0.91Q239.81-0.27 237.95-0.14L237.95-0.14L237.95-0.14Q236.09 0 234.32 0L234.32 0L216.52 0L216.52 0Q213.97 0 212.59-0.91L212.59-0.91L212.59-0.91Q211.20-1.82 210.57-3.29L210.57-3.29L210.57-3.29Q209.93-4.77 209.82-6.63L209.82-6.63L209.82-6.63Q209.70-8.49 209.70-10.44L209.70-10.44L209.70-53.13L209.70-53.13Q209.70-55.08 209.82-56.94L209.82-56.94L209.82-56.94Q209.93-58.81 210.57-60.28L210.57-60.28L210.57-60.28Q211.20-61.76 212.59-62.67L212.59-62.67L212.59-62.67Q213.97-63.57 216.52-63.57L216.52-63.57ZM273.37-63.94L273.37-63.94L273.37-63.94Q278.36-63.94 281.97-62.80L281.97-62.80L281.97-62.80Q285.58-61.67 288.06-59.85L288.06-59.85L288.06-59.85Q290.53-58.03 292.03-55.74L292.03-55.74L292.03-55.74Q293.53-53.45 294.33-51.09L294.33-51.09L294.33-51.09Q295.12-48.73 295.37-46.55L295.37-46.55L295.37-46.55Q295.62-44.37 295.62-42.78L295.62-42.78L295.62-42.78Q295.62-42.10 295.51-41.12L295.51-41.12L295.51-41.12Q295.39-40.14 294.71-39.23L294.71-39.23L294.71-39.23Q294.03-38.33 292.55-37.69L292.55-37.69L292.55-37.69Q291.08-37.05 288.35-37.05L288.35-37.05L288.35-37.05Q287.45-37.05 286.08-37.17L286.08-37.17L286.08-37.17Q284.72-37.28 283.45-37.76L283.45-37.76L283.45-37.76Q282.18-38.24 281.27-39.12L281.27-39.12L281.27-39.12Q280.36-40.01 280.36-41.60L280.36-41.60L280.36-41.60Q280.36-44.05 280.07-46.00L280.07-46.00L280.07-46.00Q279.77-47.95 279-49.32L279-49.32L279-49.32Q278.23-50.68 276.87-51.40L276.87-51.40L276.87-51.40Q275.50-52.13 273.37-52.13L273.37-52.13L273.37-52.13Q271.14-52.13 269.94-51.20L269.94-51.20L269.94-51.20Q268.74-50.27 268.19-49.18L268.19-49.18L268.19-49.18Q267.56-47.86 267.47-46.23L267.47-46.23L267.47-17.44L267.47-17.44Q267.56-15.44 268.19-13.94L268.19-13.94L268.19-13.94Q268.74-12.62 269.94-11.53L269.94-11.53L269.94-11.53Q271.14-10.44 273.37-10.44L273.37-10.44L273.37-10.44Q275.50-10.44 276.87-11.33L276.87-11.33L276.87-11.33Q278.23-12.22 279-13.71L279-13.71L279-13.71Q279.77-15.21 280.07-17.17L280.07-17.17L280.07-17.17Q280.36-19.12 280.36-21.25L280.36-21.25L280.36-21.25Q280.36-21.93 280.59-22.66L280.59-22.66L280.59-22.66Q280.82-23.39 281.63-24.00L281.63-24.00L281.63-24.00Q282.45-24.61 284.04-25.02L284.04-25.02L284.04-25.02Q285.63-25.43 288.35-25.43L288.35-25.43L288.35-25.43Q291.08-25.43 292.55-24.82L292.55-24.82L292.55-24.82Q294.03-24.20 294.71-23.41L294.71-23.41L294.71-23.41Q295.39-22.61 295.51-21.86L295.51-21.86L295.51-21.86Q295.62-21.12 295.62-20.89L295.62-20.89L295.62-20.89Q295.62-15.89 293.94-11.97L293.94-11.97L293.94-11.97Q292.26-8.04 289.19-5.31L289.19-5.31L289.19-5.31Q286.13-2.59 281.88-1.16L281.88-1.16L281.88-1.16Q277.64 0.27 272.55 0.27L272.55 0.27L272.55 0.27Q271.73 0.27 269.90 0.14L269.90 0.14L269.90 0.14Q268.06 0 265.79-0.59L265.79-0.59L265.79-0.59Q263.52-1.18 261.11-2.36L261.11-2.36L261.11-2.36Q258.70-3.54 256.73-5.65L256.73-5.65L256.73-5.65Q254.75-7.77 253.48-10.92L253.48-10.92L253.48-10.92Q252.21-14.08 252.21-18.62L252.21-18.62L252.21-43.96L252.21-43.96Q252.21-47.68 253.12-50.54L253.12-50.54L253.12-50.54Q254.02-53.40 255.50-55.51L255.50-55.51L255.50-55.51Q256.98-57.63 258.88-59.06L258.88-59.06L258.88-59.06Q260.79-60.49 262.79-61.44L262.79-61.44L262.79-61.44Q267.42-63.62 273.37-63.94ZM309.33-63.57L332.40-63.57L332.40-63.57Q334.22-63.57 336.06-63.44L336.06-63.44L336.06-63.44Q337.90-63.30 339.40-62.67L339.40-62.67L339.40-62.67Q340.89-62.03 341.82-60.74L341.82-60.74L341.82-60.74Q342.76-59.44 342.76-57.13L342.76-57.13L342.76-57.13Q342.76-54.86 341.82-53.56L341.82-53.56L341.82-53.56Q340.89-52.27 339.40-51.63L339.40-51.63L339.40-51.63Q337.90-51.00 336.06-50.84L336.06-50.84L336.06-50.84Q334.22-50.68 332.40-50.68L332.40-50.68L327.77-50.68L327.77-10.35L327.77-10.35Q327.77-8.40 327.66-6.54L327.66-6.54L327.66-6.54Q327.54-4.68 326.91-3.22L326.91-3.22L326.91-3.22Q326.27-1.77 324.86-0.89L324.86-0.89L324.86-0.89Q323.46 0 320.87 0L320.87 0L320.87 0Q318.28 0 316.87-0.89L316.87-0.89L316.87-0.89Q315.46-1.77 314.83-3.22L314.83-3.22L314.83-3.22Q314.19-4.68 314.08-6.54L314.08-6.54L314.08-6.54Q313.97-8.40 313.97-10.35L313.97-10.35L313.97-50.68L309.33-50.68L309.33-50.68Q307.52-50.68 305.68-50.84L305.68-50.84L305.68-50.84Q303.84-51.00 302.34-51.63L302.34-51.63L302.34-51.63Q300.84-52.27 299.91-53.56L299.91-53.56L299.91-53.56Q298.98-54.86 298.98-57.13L298.98-57.13L298.98-57.13Q298.98-59.44 299.91-60.74L299.91-60.74L299.91-60.74Q300.84-62.03 302.34-62.67L302.34-62.67L302.34-62.67Q303.84-63.30 305.68-63.44L305.68-63.44L305.68-63.44Q307.52-63.57 309.33-63.57L309.33-63.57ZM361.19-47.59L361.19-47.59L361.19-47.59Q361.24-45.68 362.30-44.16L362.30-44.16L362.30-44.16Q363.37-42.64 365.12-41.28L365.12-41.28L365.12-41.28Q366.87-39.92 369.09-38.62L369.09-38.62L369.09-38.62Q371.32-37.33 373.66-35.90L373.66-35.90L373.66-35.90Q376.00-34.47 378.22-32.79L378.22-32.79L378.22-32.79Q380.45-31.11 382.22-28.97L382.22-28.97L382.22-28.97Q383.99-26.84 385.08-24.16L385.08-24.16L385.08-24.16Q386.17-21.48 386.26-18.07L386.26-18.07L386.26-17.71L386.26-17.71Q386.26-13.99 385.35-11.22L385.35-11.22L385.35-11.22Q384.44-8.45 382.94-6.45L382.94-6.45L382.94-6.45Q381.45-4.45 379.45-3.16L379.45-3.16L379.45-3.16Q377.45-1.86 375.25-1.09L375.25-1.09L375.25-1.09Q373.04-0.32 370.80 0L370.80 0L370.80 0Q368.55 0.32 366.55 0.36L366.55 0.36L366.10 0.36L366.10 0.36Q362.24 0.36 359.33-0.41L359.33-0.41L359.33-0.41Q356.42-1.18 354.34-2.47L354.34-2.47L354.34-2.47Q352.25-3.77 350.86-5.45L350.86-5.45L350.86-5.45Q349.48-7.13 348.66-8.92L348.66-8.92L348.66-8.92Q347.84-10.72 347.48-12.49L347.48-12.49L347.48-12.49Q347.12-14.26 347.12-15.80L347.12-15.80L347.12-15.80Q347.12-17.39 347.66-18.57L347.66-18.57L347.66-18.57Q348.21-19.75 349.09-20.50L349.09-20.50L349.09-20.50Q349.98-21.25 351.13-21.62L351.13-21.62L351.13-21.62Q352.29-21.98 353.56-21.98L353.56-21.98L353.56-21.98Q354.74-21.98 355.99-21.62L355.99-21.62L355.99-21.62Q357.24-21.25 358.26-20.50L358.26-20.50L358.26-20.50Q359.29-19.75 359.94-18.60L359.94-18.60L359.94-18.60Q360.60-17.44 360.65-15.89L360.65-15.89L360.65-15.89Q360.74-12.49 362.19-11.24L362.19-11.24L362.19-11.24Q363.64-9.99 366.37-9.99L366.37-9.99L366.37-9.99Q367.73-10.04 368.89-10.33L368.89-10.33L368.89-10.33Q370.05-10.63 370.86-11.38L370.86-11.38L370.86-11.38Q371.68-12.12 372.16-13.37L372.16-13.37L372.16-13.37Q372.64-14.62 372.64-16.53L372.64-16.53L372.64-16.53Q372.64-18.89 371.57-20.80L371.57-20.80L371.57-20.80Q370.50-22.71 368.78-24.34L368.78-24.34L368.78-24.34Q367.05-25.97 364.83-27.45L364.83-27.45L364.83-27.45Q362.60-28.93 360.28-30.40L360.28-30.40L360.28-30.40Q357.97-31.88 355.77-33.49L355.77-33.49L355.77-33.49Q353.56-35.10 351.79-37.01L351.79-37.01L351.79-37.01Q350.02-38.92 348.95-41.23L348.95-41.23L348.95-41.23Q347.89-43.55 347.84-46.50L347.84-46.50L347.84-47.23L347.84-47.23Q347.89-52.09 349.14-55.31L349.14-55.31L349.14-55.31Q350.38-58.53 352.81-60.44L352.81-60.44L352.81-60.44Q355.24-62.35 358.79-63.14L358.79-63.14L358.79-63.14Q362.33-63.94 366.91-63.94L366.91-63.94L368.09-63.94L368.09-63.94Q372.27-63.94 375.18-63.03L375.18-63.03L375.18-63.03Q378.08-62.12 380.01-60.71L380.01-60.71L380.01-60.71Q381.94-59.31 383.06-57.53L383.06-57.53L383.06-57.53Q384.17-55.76 384.71-54.04L384.71-54.04L384.71-54.04Q385.26-52.31 385.40-50.81L385.40-50.81L385.40-50.81Q385.53-49.32 385.53-48.41L385.53-48.41L385.53-48.41Q385.53-47.04 385.01-45.93L385.01-45.93L385.01-45.93Q384.49-44.82 383.60-44.05L383.60-44.05L383.60-44.05Q382.72-43.28 381.51-42.84L381.51-42.84L381.51-42.84Q380.31-42.41 378.90-42.41L378.90-42.41L378.90-42.41Q377.81-42.41 376.72-42.84L376.72-42.84L376.72-42.84Q375.63-43.28 374.77-43.96L374.77-43.96L374.77-43.96Q373.91-44.64 373.36-45.52L373.36-45.52L373.36-45.52Q372.82-46.41 372.82-47.32L372.82-47.32L372.82-47.32Q372.82-51.04 371.48-52.49L371.48-52.49L371.48-52.49Q370.14-53.95 367.55-53.95L367.55-53.95L367.55-53.95Q366.32-53.95 365.17-53.81L365.17-53.81L365.17-53.81Q364.01-53.67 363.12-53.06L363.12-53.06L363.12-53.06Q362.24-52.45 361.71-51.18L361.71-51.18L361.71-51.18Q361.19-49.91 361.19-47.59Z" fill="#90caf9"></path></g></g><style>text {
  font-size: 64px;
  font-family: Arial Black;
  dominant-baseline: central;
  text-anchor: middle;
}</style></svg>