<svg width="571.6500122070312px" height="122.72257995605469px" xmlns="http://www.w3.org/2000/svg" viewBox="-35.82500610351559 13.638710021972656 571.6500122070312 122.72257995605469" style="background: rgba(0, 0, 0, 0);" preserveAspectRatio="xMidYMid"><defs><filter id="editing-raise" x="-100%" y="-100%" width="300%" height="300%"><feFlood flood-color="#90caf9" result="flood-surface"></feFlood><feFlood flood-color="#90caf9" result="flood-extrude"></feFlood><feMorphology operator="erode" in="SourceAlpha" radius="1" result="erode"></feMorphology><feConvolveMatrix in="erode" result="shadow" order="11,8" divisor="1" kernelMatrix="0 0 0 1 1 1 1 1 0 0 0 0 0 1 0 0 0 0 0 1 0 0 0 0 1 0 0 0 0 0 1 0 0 0 0 1 0 0 0 0 0 1 0 0 0 0 1 0 0 0 0 0 1 0 0 0 0 0 1 0 0 0 1 0 0 0 0 0 0 1 1 0 1 1 0 0 0 0 0 0 0 0 1 0 0 0 0 0"></feConvolveMatrix><feOffset dx="0" dy="4" in="shadow" result="offset"></feOffset><feGaussianBlur in="offset" stdDeviation="0.2" result="blur"></feGaussianBlur><feComposite operator="in" in="flood-extrude" in2="blur" result="extrude"></feComposite><feMorphology operator="erode" in="SourceAlpha" radius="1" result="erode2"></feMorphology><feConvolveMatrix in="erode2" result="out" order="4,4" divisor="1" kernelMatrix="0 1 1 0 1 0 0 1 1 0 0 1 0 1 1 0 "></feConvolveMatrix><feComposite operator="in" in="flood-surface" in2="out" result="text"></feComposite><feMerge><feMergeNode in="extrude"></feMergeNode><feMergeNode in="text"></feMergeNode></feMerge></filter></defs><g filter="url(#editing-raise)"><g transform="translate(46.12500238418579, 97.125)"><path d="M4.44-7.25L4.44-36.63L4.44-36.63Q4.44-37.97 4.52-39.25L4.52-39.25L4.52-39.25Q4.59-40.53 5.03-41.53L5.03-41.53L5.03-41.53Q5.47-42.53 6.42-43.14L6.42-43.14L6.42-43.14Q7.38-43.75 9.13-43.75L9.13-43.75L19.44-43.75L19.44-43.75Q23.28-43.56 26.31-42.13L26.31-42.13L26.31-42.13Q27.59-41.50 28.83-40.58L28.83-40.58L28.83-40.58Q30.06-39.66 31.03-38.30L31.03-38.30L31.03-38.30Q32-36.94 32.59-35.09L32.59-35.09L32.59-35.09Q33.19-33.25 33.19-30.81L33.19-30.81L33.19-30.81Q33.19-30.31 33.09-29.48L33.09-29.48L33.09-29.48Q33-28.66 32.69-27.67L32.69-27.67L32.69-27.67Q32.38-26.69 31.84-25.63L31.84-25.63L31.84-25.63Q31.31-24.56 30.44-23.59L30.44-23.59L30.44-23.59Q29.56-22.63 28.30-21.81L28.30-21.81L28.30-21.81Q27.03-21 25.31-20.50L25.31-20.50L25.31-20.50Q26.41-20.06 27.53-19.36L27.53-19.36L27.53-19.36Q28.66-18.66 29.56-17.56L29.56-17.56L29.56-17.56Q30.47-16.47 31.05-14.94L31.05-14.94L31.05-14.94Q31.63-13.41 31.63-11.38L31.63-11.38L31.63-6.94L31.63-6.94Q31.63-6.56 31.81-6.31L31.81-6.31L31.81-6.31Q32-6.06 32.19-5.88L32.19-5.88L32.19-5.88Q32.94-5.13 33.06-4.58L33.06-4.58L33.06-4.58Q33.19-4.03 33.19-3.69L33.19-3.69L33.19-3.69Q33.19-2.59 32.75-1.84L32.75-1.84L32.75-1.84Q32.31-1.09 31.61-0.63L31.61-0.63L31.61-0.63Q30.91-0.16 30.02 0.05L30.02 0.05L30.02 0.05Q29.13 0.25 28.19 0.25L28.19 0.25L28.19 0.25Q27.16 0.25 26.09-0.08L26.09-0.08L26.09-0.08Q25.03-0.41 24.16-1.03L24.16-1.03L24.16-1.03Q23.28-1.66 22.73-2.59L22.73-2.59L22.73-2.59Q22.19-3.53 22.19-4.75L22.19-4.75L22.19-11.38L22.19-11.38Q22.19-12.75 22-13.91L22-13.91L22-13.91Q21.81-15.06 21.28-15.91L21.28-15.91L21.28-15.91Q20.75-16.75 19.81-17.22L19.81-17.22L19.81-17.22Q18.88-17.69 17.38-17.69L17.38-17.69L13.88-17.69L13.88-7.25L13.88-7.25Q13.88-5.88 13.80-4.56L13.80-4.56L13.80-4.56Q13.72-3.25 13.28-2.23L13.28-2.23L13.28-2.23Q12.84-1.22 11.88-0.61L11.88-0.61L11.88-0.61Q10.91 0 9.13 0L9.13 0L9.13 0Q7.38 0 6.42-0.61L6.42-0.61L6.42-0.61Q5.47-1.22 5.03-2.23L5.03-2.23L5.03-2.23Q4.59-3.25 4.52-4.56L4.52-4.56L4.52-4.56Q4.44-5.88 4.44-7.25L4.44-7.25ZM13.88-24.69L18.13-24.69L18.13-24.69Q19.69-24.75 20.94-25.44L20.94-25.44L20.94-25.44Q21.47-25.72 21.97-26.16L21.97-26.16L21.97-26.16Q22.47-26.59 22.88-27.25L22.88-27.25L22.88-27.25Q23.28-27.91 23.52-28.78L23.52-28.78L23.52-28.78Q23.75-29.66 23.75-30.81L23.75-30.81L23.75-30.81Q23.75-31.84 23.52-32.64L23.52-32.64L23.52-32.64Q23.28-33.44 22.91-34.03L22.91-34.03L22.91-34.03Q22.53-34.63 22.05-35.03L22.05-35.03L22.05-35.03Q21.56-35.44 21.06-35.69L21.06-35.69L21.06-35.69Q19.88-36.28 18.38-36.38L18.38-36.38L13.88-36.38L13.88-24.69ZM44.75-43.75L57-43.75L57-43.75Q58.25-43.75 59.53-43.66L59.53-43.66L59.53-43.66Q60.81-43.56 61.84-43.13L61.84-43.13L61.84-43.13Q62.88-42.69 63.53-41.80L63.53-41.80L63.53-41.80Q64.19-40.91 64.19-39.31L64.19-39.31L64.19-39.31Q64.19-37.72 63.53-36.83L63.53-36.83L63.53-36.83Q62.88-35.94 61.84-35.50L61.84-35.50L61.84-35.50Q60.81-35.06 59.53-34.97L59.53-34.97L59.53-34.97Q58.25-34.88 57-34.88L57-34.88L49.56-34.88L49.56-26.38L53.50-26.38L53.50-26.38Q54.75-26.38 56.02-26.30L56.02-26.30L56.02-26.30Q57.28-26.22 58.27-25.80L58.27-25.80L58.27-25.80Q59.25-25.38 59.88-24.52L59.88-24.52L59.88-24.52Q60.50-23.66 60.50-22.13L60.50-22.13L60.50-22.13Q60.50-20.56 59.88-19.72L59.88-19.72L59.88-19.72Q59.25-18.88 58.27-18.45L58.27-18.45L58.27-18.45Q57.28-18.03 56.02-17.95L56.02-17.95L56.02-17.95Q54.75-17.88 53.50-17.88L53.50-17.88L49.56-17.88L49.56-8.88L57-8.88L57-8.88Q58.25-8.88 59.53-8.78L59.53-8.78L59.53-8.78Q60.81-8.69 61.84-8.27L61.84-8.27L61.84-8.27Q62.88-7.84 63.53-6.95L63.53-6.95L63.53-6.95Q64.19-6.06 64.19-4.50L64.19-4.50L64.19-4.50Q64.19-2.88 63.52-1.97L63.52-1.97L63.52-1.97Q62.84-1.06 61.81-0.63L61.81-0.63L61.81-0.63Q60.78-0.19 59.50-0.09L59.50-0.09L59.50-0.09Q58.22 0 57 0L57 0L44.75 0L44.75 0Q43 0 42.05-0.63L42.05-0.63L42.05-0.63Q41.09-1.25 40.66-2.27L40.66-2.27L40.66-2.27Q40.22-3.28 40.14-4.56L40.14-4.56L40.14-4.56Q40.06-5.84 40.06-7.19L40.06-7.19L40.06-36.56L40.06-36.56Q40.06-37.91 40.14-39.19L40.14-39.19L40.14-39.19Q40.22-40.47 40.66-41.48L40.66-41.48L40.66-41.48Q41.09-42.50 42.05-43.13L42.05-43.13L42.05-43.13Q43-43.75 44.75-43.75L44.75-43.75ZM91.63-10.13L91-10.13L91-10.13Q90.09-10.13 89.45-10.47L89.45-10.47L89.45-10.47Q88.81-10.81 88.34-11.34L88.34-11.34L88.34-11.34Q87.88-11.88 87.55-12.53L87.55-12.53L87.55-12.53Q87.22-13.19 87-13.81L87-13.81L81.06-30.94L80.25-30.94L80.25-4.88L80.25-4.88Q80.25-3.88 80.13-3L80.13-3L80.13-3Q80-2.13 79.58-1.45L79.58-1.45L79.58-1.45Q79.16-0.78 78.33-0.39L78.33-0.39L78.33-0.39Q77.50 0 76.06 0L76.06 0L76.06 0Q74.44 0 73.50-0.39L73.50-0.39L73.50-0.39Q72.56-0.78 72.09-1.45L72.09-1.45L72.09-1.45Q71.63-2.13 71.50-3L71.50-3L71.50-3Q71.38-3.88 71.38-4.88L71.38-4.88L71.38-36.63L71.38-36.63Q71.38-37.97 71.45-39.25L71.45-39.25L71.45-39.25Q71.53-40.53 71.97-41.53L71.97-41.53L71.97-41.53Q72.41-42.53 73.36-43.14L73.36-43.14L73.36-43.14Q74.31-43.75 76.06-43.75L76.06-43.75L80.31-43.75L80.31-43.75Q81.38-43.75 82.11-43.67L82.11-43.67L82.11-43.67Q82.84-43.59 83.47-43.14L83.47-43.14L83.47-43.14Q84.09-42.69 84.70-41.69L84.70-41.69L84.70-41.69Q85.31-40.69 86.05-38.86L86.05-38.86L86.05-38.86Q86.78-37.03 87.75-34.20L87.75-34.20L87.75-34.20Q88.72-31.38 90.13-27.25L90.13-27.25L90.94-24.75L91.69-24.75L92.69-27.88L92.69-27.88Q93.97-31.81 94.88-34.53L94.88-34.53L94.88-34.53Q95.78-37.25 96.47-39.02L96.47-39.02L96.47-39.02Q97.16-40.78 97.70-41.73L97.70-41.73L97.70-41.73Q98.25-42.69 98.86-43.14L98.86-43.14L98.86-43.14Q99.47-43.59 100.19-43.67L100.19-43.67L100.19-43.67Q100.91-43.75 101.94-43.75L101.94-43.75L106.50-43.75L106.50-43.75Q108.25-43.75 109.20-43.14L109.20-43.14L109.20-43.14Q110.16-42.53 110.59-41.53L110.59-41.53L110.59-41.53Q111.03-40.53 111.11-39.25L111.11-39.25L111.11-39.25Q111.19-37.97 111.19-36.63L111.19-36.63L111.19-4.88L111.19-4.88Q111.19-3.88 111.06-3L111.06-3L111.06-3Q110.94-2.13 110.47-1.45L110.47-1.45L110.47-1.45Q110-0.78 109.06-0.39L109.06-0.39L109.06-0.39Q108.13 0 106.50 0L106.50 0L106.50 0Q105.06 0 104.23-0.39L104.23-0.39L104.23-0.39Q103.41-0.78 102.98-1.45L102.98-1.45L102.98-1.45Q102.56-2.13 102.44-3L102.44-3L102.44-3Q102.31-3.88 102.31-4.88L102.31-4.88L102.31-30.94L101.44-30.94L95.56-13.81L95.56-13.81Q95.31-13.19 95-12.53L95-12.53L95-12.53Q94.69-11.88 94.22-11.34L94.22-11.34L94.22-11.34Q93.75-10.81 93.13-10.47L93.13-10.47L93.13-10.47Q92.50-10.13 91.63-10.13L91.63-10.13ZM121.56-7.19L121.56-36.56L121.56-36.56Q121.56-37.91 121.70-39.19L121.70-39.19L121.70-39.19Q121.84-40.47 122.36-41.48L122.36-41.48L122.36-41.48Q122.88-42.50 123.91-43.13L123.91-43.13L123.91-43.13Q124.94-43.75 126.75-43.75L126.75-43.75L126.75-43.75Q128.56-43.75 129.59-43.13L129.59-43.13L129.59-43.13Q130.63-42.50 131.14-41.48L131.14-41.48L131.14-41.48Q131.66-40.47 131.80-39.19L131.80-39.19L131.80-39.19Q131.94-37.91 131.94-36.56L131.94-36.56L131.94-7.19L131.94-7.19Q131.94-5.81 131.81-4.53L131.81-4.53L131.81-4.53Q131.69-3.25 131.17-2.23L131.17-2.23L131.17-2.23Q130.66-1.22 129.61-0.61L129.61-0.61L129.61-0.61Q128.56 0 126.75 0L126.75 0L126.75 0Q124.94 0 123.91-0.61L123.91-0.61L123.91-0.61Q122.88-1.22 122.36-2.23L122.36-2.23L122.36-2.23Q121.84-3.25 121.70-4.53L121.70-4.53L121.70-4.53Q121.56-5.81 121.56-7.19L121.56-7.19ZM155.81-39.88L165.75-12.94L166.50-12.94L166.50-38.88L166.50-38.88Q166.50-39.88 166.63-40.77L166.63-40.77L166.63-40.77Q166.75-41.66 167.17-42.31L167.17-42.31L167.17-42.31Q167.59-42.97 168.42-43.36L168.42-43.36L168.42-43.36Q169.25-43.75 170.69-43.75L170.69-43.75L170.69-43.75Q172.28-43.75 173.20-43.36L173.20-43.36L173.20-43.36Q174.13-42.97 174.59-42.31L174.59-42.31L174.59-42.31Q175.06-41.66 175.19-40.77L175.19-40.77L175.19-40.77Q175.31-39.88 175.31-38.88L175.31-38.88L175.31-7.19L175.31-7.19Q175.31-5.81 175.23-4.53L175.23-4.53L175.23-4.53Q175.16-3.25 174.73-2.23L174.73-2.23L174.73-2.23Q174.31-1.22 173.36-0.61L173.36-0.61L173.36-0.61Q172.41 0 170.69 0L170.69 0L166.56 0L166.56 0Q165.09 0 164.11-0.58L164.11-0.58L164.11-0.58Q163.13-1.16 162.47-1.98L162.47-1.98L162.47-1.98Q161.81-2.81 161.42-3.72L161.42-3.72L161.42-3.72Q161.03-4.63 160.81-5.25L160.81-5.25L151.38-30.81L150.63-30.81L150.63-4.88L150.63-4.88Q150.63-3.88 150.50-2.98L150.50-2.98L150.50-2.98Q150.38-2.09 149.95-1.44L149.95-1.44L149.95-1.44Q149.53-0.78 148.70-0.39L148.70-0.39L148.70-0.39Q147.88 0 146.44 0L146.44 0L146.44 0Q144.81 0 143.88-0.39L143.88-0.39L143.88-0.39Q142.94-0.78 142.47-1.44L142.47-1.44L142.47-1.44Q142-2.09 141.88-2.98L141.88-2.98L141.88-2.98Q141.75-3.88 141.75-4.88L141.75-4.88L141.75-36.56L141.75-36.56Q141.75-37.91 141.83-39.20L141.83-39.20L141.83-39.20Q141.91-40.50 142.34-41.52L142.34-41.52L142.34-41.52Q142.78-42.53 143.73-43.14L143.73-43.14L143.73-43.14Q144.69-43.75 146.44-43.75L146.44-43.75L150.56-43.75L150.56-43.75Q152.13-43.75 153.11-43.14L153.11-43.14L153.11-43.14Q154.09-42.53 154.72-41.81L154.72-41.81L154.72-41.81Q155.41-40.97 155.81-39.88L155.81-39.88ZM184.88-7.19L184.88-36.56L184.88-36.56Q184.88-37.91 185.02-39.19L185.02-39.19L185.02-39.19Q185.16-40.47 185.67-41.48L185.67-41.48L185.67-41.48Q186.19-42.50 187.22-43.13L187.22-43.13L187.22-43.13Q188.25-43.75 190.06-43.75L190.06-43.75L190.06-43.75Q191.88-43.75 192.91-43.13L192.91-43.13L192.91-43.13Q193.94-42.50 194.45-41.48L194.45-41.48L194.45-41.48Q194.97-40.47 195.11-39.19L195.11-39.19L195.11-39.19Q195.25-37.91 195.25-36.56L195.25-36.56L195.25-7.19L195.25-7.19Q195.25-5.81 195.13-4.53L195.13-4.53L195.13-4.53Q195-3.25 194.48-2.23L194.48-2.23L194.48-2.23Q193.97-1.22 192.92-0.61L192.92-0.61L192.92-0.61Q191.88 0 190.06 0L190.06 0L190.06 0Q188.25 0 187.22-0.61L187.22-0.61L187.22-0.61Q186.19-1.22 185.67-2.23L185.67-2.23L185.67-2.23Q185.16-3.25 185.02-4.53L185.02-4.53L185.02-4.53Q184.88-5.81 184.88-7.19L184.88-7.19ZM212.88-32.75L212.88-32.75L212.88-32.75Q212.91-31.44 213.64-30.39L213.64-30.39L213.64-30.39Q214.38-29.34 215.58-28.41L215.58-28.41L215.58-28.41Q216.78-27.47 218.31-26.58L218.31-26.58L218.31-26.58Q219.84-25.69 221.45-24.70L221.45-24.70L221.45-24.70Q223.06-23.72 224.59-22.56L224.59-22.56L224.59-22.56Q226.13-21.41 227.34-19.94L227.34-19.94L227.34-19.94Q228.56-18.47 229.31-16.63L229.31-16.63L229.31-16.63Q230.06-14.78 230.13-12.44L230.13-12.44L230.13-12.19L230.13-12.19Q230.13-9.63 229.50-7.72L229.50-7.72L229.50-7.72Q228.88-5.81 227.84-4.44L227.84-4.44L227.84-4.44Q226.81-3.06 225.44-2.17L225.44-2.17L225.44-2.17Q224.06-1.28 222.55-0.75L222.55-0.75L222.55-0.75Q221.03-0.22 219.48 0L219.48 0L219.48 0Q217.94 0.22 216.56 0.25L216.56 0.25L216.25 0.25L216.25 0.25Q213.59 0.25 211.59-0.28L211.59-0.28L211.59-0.28Q209.59-0.81 208.16-1.70L208.16-1.70L208.16-1.70Q206.72-2.59 205.77-3.75L205.77-3.75L205.77-3.75Q204.81-4.91 204.25-6.14L204.25-6.14L204.25-6.14Q203.69-7.38 203.44-8.59L203.44-8.59L203.44-8.59Q203.19-9.81 203.19-10.88L203.19-10.88L203.19-10.88Q203.19-11.97 203.56-12.78L203.56-12.78L203.56-12.78Q203.94-13.59 204.55-14.11L204.55-14.11L204.55-14.11Q205.16-14.63 205.95-14.88L205.95-14.88L205.95-14.88Q206.75-15.13 207.63-15.13L207.63-15.13L207.63-15.13Q208.44-15.13 209.30-14.88L209.30-14.88L209.30-14.88Q210.16-14.63 210.86-14.11L210.86-14.11L210.86-14.11Q211.56-13.59 212.02-12.80L212.02-12.80L212.02-12.80Q212.47-12 212.50-10.94L212.50-10.94L212.50-10.94Q212.56-8.59 213.56-7.73L213.56-7.73L213.56-7.73Q214.56-6.88 216.44-6.88L216.44-6.88L216.44-6.88Q217.38-6.91 218.17-7.11L218.17-7.11L218.17-7.11Q218.97-7.31 219.53-7.83L219.53-7.83L219.53-7.83Q220.09-8.34 220.42-9.20L220.42-9.20L220.42-9.20Q220.75-10.06 220.75-11.38L220.75-11.38L220.75-11.38Q220.75-13 220.02-14.31L220.02-14.31L220.02-14.31Q219.28-15.63 218.09-16.75L218.09-16.75L218.09-16.75Q216.91-17.88 215.38-18.89L215.38-18.89L215.38-18.89Q213.84-19.91 212.25-20.92L212.25-20.92L212.25-20.92Q210.66-21.94 209.14-23.05L209.14-23.05L209.14-23.05Q207.63-24.16 206.41-25.47L206.41-25.47L206.41-25.47Q205.19-26.78 204.45-28.38L204.45-28.38L204.45-28.38Q203.72-29.97 203.69-32L203.69-32L203.69-32.50L203.69-32.50Q203.72-35.84 204.58-38.06L204.58-38.06L204.58-38.06Q205.44-40.28 207.11-41.59L207.11-41.59L207.11-41.59Q208.78-42.91 211.22-43.45L211.22-43.45L211.22-43.45Q213.66-44 216.81-44L216.81-44L217.63-44L217.63-44Q220.50-44 222.50-43.38L222.50-43.38L222.50-43.38Q224.50-42.75 225.83-41.78L225.83-41.78L225.83-41.78Q227.16-40.81 227.92-39.59L227.92-39.59L227.92-39.59Q228.69-38.38 229.06-37.19L229.06-37.19L229.06-37.19Q229.44-36 229.53-34.97L229.53-34.97L229.53-34.97Q229.63-33.94 229.63-33.31L229.63-33.31L229.63-33.31Q229.63-32.38 229.27-31.61L229.27-31.61L229.27-31.61Q228.91-30.84 228.30-30.31L228.30-30.31L228.30-30.31Q227.69-29.78 226.86-29.48L226.86-29.48L226.86-29.48Q226.03-29.19 225.06-29.19L225.06-29.19L225.06-29.19Q224.31-29.19 223.56-29.48L223.56-29.48L223.56-29.48Q222.81-29.78 222.22-30.25L222.22-30.25L222.22-30.25Q221.63-30.72 221.25-31.33L221.25-31.33L221.25-31.33Q220.88-31.94 220.88-32.56L220.88-32.56L220.88-32.56Q220.88-35.13 219.95-36.13L219.95-36.13L219.95-36.13Q219.03-37.13 217.25-37.13L217.25-37.13L217.25-37.13Q216.41-37.13 215.61-37.03L215.61-37.03L215.61-37.03Q214.81-36.94 214.20-36.52L214.20-36.52L214.20-36.52Q213.59-36.09 213.23-35.22L213.23-35.22L213.23-35.22Q212.88-34.34 212.88-32.75ZM249.50-44L249.50-44L249.50-44Q252.94-44 255.42-43.22L255.42-43.22L255.42-43.22Q257.91-42.44 259.61-41.19L259.61-41.19L259.61-41.19Q261.31-39.94 262.34-38.36L262.34-38.36L262.34-38.36Q263.38-36.78 263.92-35.16L263.92-35.16L263.92-35.16Q264.47-33.53 264.64-32.03L264.64-32.03L264.64-32.03Q264.81-30.53 264.81-29.44L264.81-29.44L264.81-29.44Q264.81-28.97 264.73-28.30L264.73-28.30L264.73-28.30Q264.66-27.63 264.19-27L264.19-27L264.19-27Q263.72-26.38 262.70-25.94L262.70-25.94L262.70-25.94Q261.69-25.50 259.81-25.50L259.81-25.50L259.81-25.50Q259.19-25.50 258.25-25.58L258.25-25.58L258.25-25.58Q257.31-25.66 256.44-25.98L256.44-25.98L256.44-25.98Q255.56-26.31 254.94-26.92L254.94-26.92L254.94-26.92Q254.31-27.53 254.31-28.63L254.31-28.63L254.31-28.63Q254.31-30.31 254.11-31.66L254.11-31.66L254.11-31.66Q253.91-33 253.38-33.94L253.38-33.94L253.38-33.94Q252.84-34.88 251.91-35.38L251.91-35.38L251.91-35.38Q250.97-35.88 249.50-35.88L249.50-35.88L249.50-35.88Q247.97-35.88 247.14-35.23L247.14-35.23L247.14-35.23Q246.31-34.59 245.94-33.84L245.94-33.84L245.94-33.84Q245.50-32.94 245.44-31.81L245.44-31.81L245.44-12L245.44-12Q245.50-10.63 245.94-9.59L245.94-9.59L245.94-9.59Q246.31-8.69 247.14-7.94L247.14-7.94L247.14-7.94Q247.97-7.19 249.50-7.19L249.50-7.19L249.50-7.19Q250.97-7.19 251.91-7.80L251.91-7.80L251.91-7.80Q252.84-8.41 253.38-9.44L253.38-9.44L253.38-9.44Q253.91-10.47 254.11-11.81L254.11-11.81L254.11-11.81Q254.31-13.16 254.31-14.63L254.31-14.63L254.31-14.63Q254.31-15.09 254.47-15.59L254.47-15.59L254.47-15.59Q254.63-16.09 255.19-16.52L255.19-16.52L255.19-16.52Q255.75-16.94 256.84-17.22L256.84-17.22L256.84-17.22Q257.94-17.50 259.81-17.50L259.81-17.50L259.81-17.50Q261.69-17.50 262.70-17.08L262.70-17.08L262.70-17.08Q263.72-16.66 264.19-16.11L264.19-16.11L264.19-16.11Q264.66-15.56 264.73-15.05L264.73-15.05L264.73-15.05Q264.81-14.53 264.81-14.38L264.81-14.38L264.81-14.38Q264.81-10.94 263.66-8.23L263.66-8.23L263.66-8.23Q262.50-5.53 260.39-3.66L260.39-3.66L260.39-3.66Q258.28-1.78 255.36-0.80L255.36-0.80L255.36-0.80Q252.44 0.19 248.94 0.19L248.94 0.19L248.94 0.19Q248.38 0.19 247.11 0.09L247.11 0.09L247.11 0.09Q245.84 0 244.28-0.41L244.28-0.41L244.28-0.41Q242.72-0.81 241.06-1.63L241.06-1.63L241.06-1.63Q239.41-2.44 238.05-3.89L238.05-3.89L238.05-3.89Q236.69-5.34 235.81-7.52L235.81-7.52L235.81-7.52Q234.94-9.69 234.94-12.81L234.94-12.81L234.94-30.25L234.94-30.25Q234.94-32.81 235.56-34.78L235.56-34.78L235.56-34.78Q236.19-36.75 237.20-38.20L237.20-38.20L237.20-38.20Q238.22-39.66 239.53-40.64L239.53-40.64L239.53-40.64Q240.84-41.63 242.22-42.28L242.22-42.28L242.22-42.28Q245.41-43.78 249.50-44ZM275.88-43.75L288.13-43.75L288.13-43.75Q289.38-43.75 290.66-43.66L290.66-43.66L290.66-43.66Q291.94-43.56 292.97-43.13L292.97-43.13L292.97-43.13Q294-42.69 294.66-41.80L294.66-41.80L294.66-41.80Q295.31-40.91 295.31-39.31L295.31-39.31L295.31-39.31Q295.31-37.72 294.66-36.83L294.66-36.83L294.66-36.83Q294-35.94 292.97-35.50L292.97-35.50L292.97-35.50Q291.94-35.06 290.66-34.97L290.66-34.97L290.66-34.97Q289.38-34.88 288.13-34.88L288.13-34.88L280.69-34.88L280.69-26.38L284.63-26.38L284.63-26.38Q285.88-26.38 287.14-26.30L287.14-26.30L287.14-26.30Q288.41-26.22 289.39-25.80L289.39-25.80L289.39-25.80Q290.38-25.38 291-24.52L291-24.52L291-24.52Q291.63-23.66 291.63-22.13L291.63-22.13L291.63-22.13Q291.63-20.56 291-19.72L291-19.72L291-19.72Q290.38-18.88 289.39-18.45L289.39-18.45L289.39-18.45Q288.41-18.03 287.14-17.95L287.14-17.95L287.14-17.95Q285.88-17.88 284.63-17.88L284.63-17.88L280.69-17.88L280.69-8.88L288.13-8.88L288.13-8.88Q289.38-8.88 290.66-8.78L290.66-8.78L290.66-8.78Q291.94-8.69 292.97-8.27L292.97-8.27L292.97-8.27Q294-7.84 294.66-6.95L294.66-6.95L294.66-6.95Q295.31-6.06 295.31-4.50L295.31-4.50L295.31-4.50Q295.31-2.88 294.64-1.97L294.64-1.97L294.64-1.97Q293.97-1.06 292.94-0.63L292.94-0.63L292.94-0.63Q291.91-0.19 290.63-0.09L290.63-0.09L290.63-0.09Q289.34 0 288.13 0L288.13 0L275.88 0L275.88 0Q274.13 0 273.17-0.63L273.17-0.63L273.17-0.63Q272.22-1.25 271.78-2.27L271.78-2.27L271.78-2.27Q271.34-3.28 271.27-4.56L271.27-4.56L271.27-4.56Q271.19-5.84 271.19-7.19L271.19-7.19L271.19-36.56L271.19-36.56Q271.19-37.91 271.27-39.19L271.27-39.19L271.27-39.19Q271.34-40.47 271.78-41.48L271.78-41.48L271.78-41.48Q272.22-42.50 273.17-43.13L273.17-43.13L273.17-43.13Q274.13-43.75 275.88-43.75L275.88-43.75ZM316.31-39.88L326.25-12.94L327-12.94L327-38.88L327-38.88Q327-39.88 327.13-40.77L327.13-40.77L327.13-40.77Q327.25-41.66 327.67-42.31L327.67-42.31L327.67-42.31Q328.09-42.97 328.92-43.36L328.92-43.36L328.92-43.36Q329.75-43.75 331.19-43.75L331.19-43.75L331.19-43.75Q332.78-43.75 333.70-43.36L333.70-43.36L333.70-43.36Q334.63-42.97 335.09-42.31L335.09-42.31L335.09-42.31Q335.56-41.66 335.69-40.77L335.69-40.77L335.69-40.77Q335.81-39.88 335.81-38.88L335.81-38.88L335.81-7.19L335.81-7.19Q335.81-5.81 335.73-4.53L335.73-4.53L335.73-4.53Q335.66-3.25 335.23-2.23L335.23-2.23L335.23-2.23Q334.81-1.22 333.86-0.61L333.86-0.61L333.86-0.61Q332.91 0 331.19 0L331.19 0L327.06 0L327.06 0Q325.59 0 324.61-0.58L324.61-0.58L324.61-0.58Q323.63-1.16 322.97-1.98L322.97-1.98L322.97-1.98Q322.31-2.81 321.92-3.72L321.92-3.72L321.92-3.72Q321.53-4.63 321.31-5.25L321.31-5.25L311.88-30.81L311.13-30.81L311.13-4.88L311.13-4.88Q311.13-3.88 311-2.98L311-2.98L311-2.98Q310.88-2.09 310.45-1.44L310.45-1.44L310.45-1.44Q310.03-0.78 309.20-0.39L309.20-0.39L309.20-0.39Q308.38 0 306.94 0L306.94 0L306.94 0Q305.31 0 304.38-0.39L304.38-0.39L304.38-0.39Q303.44-0.78 302.97-1.44L302.97-1.44L302.97-1.44Q302.50-2.09 302.38-2.98L302.38-2.98L302.38-2.98Q302.25-3.88 302.25-4.88L302.25-4.88L302.25-36.56L302.25-36.56Q302.25-37.91 302.33-39.20L302.33-39.20L302.33-39.20Q302.41-40.50 302.84-41.52L302.84-41.52L302.84-41.52Q303.28-42.53 304.23-43.14L304.23-43.14L304.23-43.14Q305.19-43.75 306.94-43.75L306.94-43.75L311.06-43.75L311.06-43.75Q312.63-43.75 313.61-43.14L313.61-43.14L313.61-43.14Q314.59-42.53 315.22-41.81L315.22-41.81L315.22-41.81Q315.91-40.97 316.31-39.88L316.31-39.88ZM357.50-44L357.50-44L357.50-44Q360.94-44 363.42-43.22L363.42-43.22L363.42-43.22Q365.91-42.44 367.61-41.19L367.61-41.19L367.61-41.19Q369.31-39.94 370.34-38.36L370.34-38.36L370.34-38.36Q371.38-36.78 371.92-35.16L371.92-35.16L371.92-35.16Q372.47-33.53 372.64-32.03L372.64-32.03L372.64-32.03Q372.81-30.53 372.81-29.44L372.81-29.44L372.81-29.44Q372.81-28.97 372.73-28.30L372.73-28.30L372.73-28.30Q372.66-27.63 372.19-27L372.19-27L372.19-27Q371.72-26.38 370.70-25.94L370.70-25.94L370.70-25.94Q369.69-25.50 367.81-25.50L367.81-25.50L367.81-25.50Q367.19-25.50 366.25-25.58L366.25-25.58L366.25-25.58Q365.31-25.66 364.44-25.98L364.44-25.98L364.44-25.98Q363.56-26.31 362.94-26.92L362.94-26.92L362.94-26.92Q362.31-27.53 362.31-28.63L362.31-28.63L362.31-28.63Q362.31-30.31 362.11-31.66L362.11-31.66L362.11-31.66Q361.91-33 361.38-33.94L361.38-33.94L361.38-33.94Q360.84-34.88 359.91-35.38L359.91-35.38L359.91-35.38Q358.97-35.88 357.50-35.88L357.50-35.88L357.50-35.88Q355.97-35.88 355.14-35.23L355.14-35.23L355.14-35.23Q354.31-34.59 353.94-33.84L353.94-33.84L353.94-33.84Q353.50-32.94 353.44-31.81L353.44-31.81L353.44-12L353.44-12Q353.50-10.63 353.94-9.59L353.94-9.59L353.94-9.59Q354.31-8.69 355.14-7.94L355.14-7.94L355.14-7.94Q355.97-7.19 357.50-7.19L357.50-7.19L357.50-7.19Q358.97-7.19 359.91-7.80L359.91-7.80L359.91-7.80Q360.84-8.41 361.38-9.44L361.38-9.44L361.38-9.44Q361.91-10.47 362.11-11.81L362.11-11.81L362.11-11.81Q362.31-13.16 362.31-14.63L362.31-14.63L362.31-14.63Q362.31-15.09 362.47-15.59L362.47-15.59L362.47-15.59Q362.63-16.09 363.19-16.52L363.19-16.52L363.19-16.52Q363.75-16.94 364.84-17.22L364.84-17.22L364.84-17.22Q365.94-17.50 367.81-17.50L367.81-17.50L367.81-17.50Q369.69-17.50 370.70-17.08L370.70-17.08L370.70-17.08Q371.72-16.66 372.19-16.11L372.19-16.11L372.19-16.11Q372.66-15.56 372.73-15.05L372.73-15.05L372.73-15.05Q372.81-14.53 372.81-14.38L372.81-14.38L372.81-14.38Q372.81-10.94 371.66-8.23L371.66-8.23L371.66-8.23Q370.50-5.53 368.39-3.66L368.39-3.66L368.39-3.66Q366.28-1.78 363.36-0.80L363.36-0.80L363.36-0.80Q360.44 0.19 356.94 0.19L356.94 0.19L356.94 0.19Q356.38 0.19 355.11 0.09L355.11 0.09L355.11 0.09Q353.84 0 352.28-0.41L352.28-0.41L352.28-0.41Q350.72-0.81 349.06-1.63L349.06-1.63L349.06-1.63Q347.41-2.44 346.05-3.89L346.05-3.89L346.05-3.89Q344.69-5.34 343.81-7.52L343.81-7.52L343.81-7.52Q342.94-9.69 342.94-12.81L342.94-12.81L342.94-30.25L342.94-30.25Q342.94-32.81 343.56-34.78L343.56-34.78L343.56-34.78Q344.19-36.75 345.20-38.20L345.20-38.20L345.20-38.20Q346.22-39.66 347.53-40.64L347.53-40.64L347.53-40.64Q348.84-41.63 350.22-42.28L350.22-42.28L350.22-42.28Q353.41-43.78 357.50-44ZM383.88-43.75L396.13-43.75L396.13-43.75Q397.38-43.75 398.66-43.66L398.66-43.66L398.66-43.66Q399.94-43.56 400.97-43.13L400.97-43.13L400.97-43.13Q402-42.69 402.66-41.80L402.66-41.80L402.66-41.80Q403.31-40.91 403.31-39.31L403.31-39.31L403.31-39.31Q403.31-37.72 402.66-36.83L402.66-36.83L402.66-36.83Q402-35.94 400.97-35.50L400.97-35.50L400.97-35.50Q399.94-35.06 398.66-34.97L398.66-34.97L398.66-34.97Q397.38-34.88 396.13-34.88L396.13-34.88L388.69-34.88L388.69-26.38L392.63-26.38L392.63-26.38Q393.88-26.38 395.14-26.30L395.14-26.30L395.14-26.30Q396.41-26.22 397.39-25.80L397.39-25.80L397.39-25.80Q398.38-25.38 399-24.52L399-24.52L399-24.52Q399.63-23.66 399.63-22.13L399.63-22.13L399.63-22.13Q399.63-20.56 399-19.72L399-19.72L399-19.72Q398.38-18.88 397.39-18.45L397.39-18.45L397.39-18.45Q396.41-18.03 395.14-17.95L395.14-17.95L395.14-17.95Q393.88-17.88 392.63-17.88L392.63-17.88L388.69-17.88L388.69-8.88L396.13-8.88L396.13-8.88Q397.38-8.88 398.66-8.78L398.66-8.78L398.66-8.78Q399.94-8.69 400.97-8.27L400.97-8.27L400.97-8.27Q402-7.84 402.66-6.95L402.66-6.95L402.66-6.95Q403.31-6.06 403.31-4.50L403.31-4.50L403.31-4.50Q403.31-2.88 402.64-1.97L402.64-1.97L402.64-1.97Q401.97-1.06 400.94-0.63L400.94-0.63L400.94-0.63Q399.91-0.19 398.63-0.09L398.63-0.09L398.63-0.09Q397.34 0 396.13 0L396.13 0L383.88 0L383.88 0Q382.13 0 381.17-0.63L381.17-0.63L381.17-0.63Q380.22-1.25 379.78-2.27L379.78-2.27L379.78-2.27Q379.34-3.28 379.27-4.56L379.27-4.56L379.27-4.56Q379.19-5.84 379.19-7.19L379.19-7.19L379.19-36.56L379.19-36.56Q379.19-37.91 379.27-39.19L379.27-39.19L379.27-39.19Q379.34-40.47 379.78-41.48L379.78-41.48L379.78-41.48Q380.22-42.50 381.17-43.13L381.17-43.13L381.17-43.13Q382.13-43.75 383.88-43.75L383.88-43.75Z"></path></g></g><style>text {
  font-size: 64px;
  font-family: Arial Black;
  dominant-baseline: central;
  text-anchor: middle;
}</style></svg>