<svg width="376.49001464843747px" height="168.835009765625px" xmlns="http://www.w3.org/2000/svg" viewBox="61.75499267578127 -9.417504882812494 376.49001464843747 168.835009765625" style="background: rgba(0, 0, 0, 0);" preserveAspectRatio="xMidYMid"><defs><filter id="editing-hole" x="-100%" y="-100%" width="300%" height="300%"><feFlood flood-color="#90caf9" result="black"></feFlood><feMorphology operator="dilate" radius="2" in="SourceGraphic" result="erode"></feMorphology><feGaussianBlur in="erode" stdDeviation="4" result="blur"></feGaussianBlur><feOffset in="blur" dx="2" dy="2" result="offset"></feOffset><feComposite operator="atop" in="offset" in2="black" result="merge"></feComposite><feComposite operator="in" in="merge" in2="SourceGraphic" result="inner-shadow"></feComposite></filter></defs><g filter="url(#editing-hole)"><g transform="translate(118.39999389648438, 107.14999771118164)"><path d="M18.07-47.59L18.07-47.59L18.07-47.59Q18.12-45.68 19.19-44.16L19.19-44.16L19.19-44.16Q20.25-42.64 22.00-41.28L22.00-41.28L22.00-41.28Q23.75-39.92 25.97-38.62L25.97-38.62L25.97-38.62Q28.20-37.33 30.54-35.90L30.54-35.90L30.54-35.90Q32.88-34.47 35.10-32.79L35.10-32.79L35.10-32.79Q37.33-31.11 39.10-28.97L39.10-28.97L39.10-28.97Q40.87-26.84 41.96-24.16L41.96-24.16L41.96-24.16Q43.05-21.48 43.14-18.07L43.14-18.07L43.14-17.71L43.14-17.71Q43.14-13.99 42.23-11.22L42.23-11.22L42.23-11.22Q41.32-8.45 39.82-6.45L39.82-6.45L39.82-6.45Q38.33-4.45 36.33-3.16L36.33-3.16L36.33-3.16Q34.33-1.86 32.13-1.09L32.13-1.09L32.13-1.09Q29.93-0.32 27.68 0L27.68 0L27.68 0Q25.43 0.32 23.43 0.36L23.43 0.36L22.98 0.36L22.98 0.36Q19.12 0.36 16.21-0.41L16.21-0.41L16.21-0.41Q13.31-1.18 11.22-2.47L11.22-2.47L11.22-2.47Q9.13-3.77 7.74-5.45L7.74-5.45L7.74-5.45Q6.36-7.13 5.54-8.92L5.54-8.92L5.54-8.92Q4.72-10.72 4.36-12.49L4.36-12.49L4.36-12.49Q4.00-14.26 4.00-15.80L4.00-15.80L4.00-15.80Q4.00-17.39 4.54-18.57L4.54-18.57L4.54-18.57Q5.09-19.75 5.97-20.50L5.97-20.50L5.97-20.50Q6.86-21.25 8.01-21.62L8.01-21.62L8.01-21.62Q9.17-21.98 10.44-21.98L10.44-21.98L10.44-21.98Q11.63-21.98 12.87-21.62L12.87-21.62L12.87-21.62Q14.12-21.25 15.14-20.50L15.14-20.50L15.14-20.50Q16.17-19.75 16.82-18.60L16.82-18.60L16.82-18.60Q17.48-17.44 17.53-15.89L17.53-15.89L17.53-15.89Q17.62-12.49 19.07-11.24L19.07-11.24L19.07-11.24Q20.53-9.99 23.25-9.99L23.25-9.99L23.25-9.99Q24.61-10.04 25.77-10.33L25.77-10.33L25.77-10.33Q26.93-10.63 27.75-11.38L27.75-11.38L27.75-11.38Q28.56-12.12 29.04-13.37L29.04-13.37L29.04-13.37Q29.52-14.62 29.52-16.53L29.52-16.53L29.52-16.53Q29.52-18.89 28.45-20.80L28.45-20.80L28.45-20.80Q27.38-22.71 25.66-24.34L25.66-24.34L25.66-24.34Q23.93-25.97 21.71-27.45L21.71-27.45L21.71-27.45Q19.48-28.93 17.17-30.40L17.17-30.40L17.17-30.40Q14.85-31.88 12.65-33.49L12.65-33.49L12.65-33.49Q10.44-35.10 8.67-37.01L8.67-37.01L8.67-37.01Q6.90-38.92 5.84-41.23L5.84-41.23L5.84-41.23Q4.77-43.55 4.72-46.50L4.72-46.50L4.72-47.23L4.72-47.23Q4.77-52.09 6.02-55.31L6.02-55.31L6.02-55.31Q7.27-58.53 9.70-60.44L9.70-60.44L9.70-60.44Q12.12-62.35 15.67-63.14L15.67-63.14L15.67-63.14Q19.21-63.94 23.79-63.94L23.79-63.94L24.98-63.94L24.98-63.94Q29.15-63.94 32.06-63.03L32.06-63.03L32.06-63.03Q34.97-62.12 36.90-60.71L36.90-60.71L36.90-60.71Q38.83-59.31 39.94-57.53L39.94-57.53L39.94-57.53Q41.05-55.76 41.60-54.04L41.60-54.04L41.60-54.04Q42.14-52.31 42.28-50.81L42.28-50.81L42.28-50.81Q42.41-49.32 42.41-48.41L42.41-48.41L42.41-48.41Q42.41-47.04 41.89-45.93L41.89-45.93L41.89-45.93Q41.37-44.82 40.48-44.05L40.48-44.05L40.48-44.05Q39.60-43.28 38.39-42.84L38.39-42.84L38.39-42.84Q37.19-42.41 35.78-42.41L35.78-42.41L35.78-42.41Q34.69-42.41 33.60-42.84L33.60-42.84L33.60-42.84Q32.51-43.28 31.65-43.96L31.65-43.96L31.65-43.96Q30.79-44.64 30.24-45.52L30.24-45.52L30.24-45.52Q29.70-46.41 29.70-47.32L29.70-47.32L29.70-47.32Q29.70-51.04 28.36-52.49L28.36-52.49L28.36-52.49Q27.02-53.95 24.43-53.95L24.43-53.95L24.43-53.95Q23.20-53.95 22.05-53.81L22.05-53.81L22.05-53.81Q20.89-53.67 20.00-53.06L20.00-53.06L20.00-53.06Q19.12-52.45 18.60-51.18L18.60-51.18L18.60-51.18Q18.07-49.91 18.07-47.59ZM52.40-10.44L52.40-53.22L52.40-53.22Q52.40-55.17 52.58-57.04L52.58-57.04L52.58-57.04Q52.77-58.90 53.45-60.35L53.45-60.35L53.45-60.35Q54.13-61.80 55.49-62.69L55.49-62.69L55.49-62.69Q56.85-63.57 59.21-63.57L59.21-63.57L59.21-63.57Q61.62-63.57 63.03-62.69L63.03-62.69L63.03-62.69Q64.44-61.80 65.14-60.35L65.14-60.35L65.14-60.35Q65.84-58.90 66.03-57.04L66.03-57.04L66.03-57.04Q66.21-55.17 66.21-53.22L66.21-53.22L66.21-36.87L71.38-36.87L71.38-36.87Q72.88-40.78 74.38-44.55L74.38-44.55L74.38-44.55Q75.02-46.14 75.70-47.84L75.70-47.84L75.70-47.84Q76.38-49.54 77.04-51.18L77.04-51.18L77.04-51.18Q77.70-52.81 78.31-54.33L78.31-54.33L78.31-54.33Q78.92-55.85 79.47-57.04L79.47-57.04L79.47-57.04Q80.01-58.31 80.63-59.49L80.63-59.49L80.63-59.49Q81.24-60.67 82.06-61.58L82.06-61.58L82.06-61.58Q82.87-62.48 83.90-63.03L83.90-63.03L83.90-63.03Q84.92-63.57 86.28-63.57L86.28-63.57L86.28-63.57Q87.60-63.57 88.87-63.17L88.87-63.17L88.87-63.17Q90.14-62.76 91.14-61.94L91.14-61.94L91.14-61.94Q92.14-61.12 92.75-59.94L92.75-59.94L92.75-59.94Q93.36-58.76 93.36-57.22L93.36-57.22L93.36-57.22Q93.36-56.04 92.98-54.42L92.98-54.42L92.98-54.42Q92.59-52.81 91.91-51.22L91.91-51.22L83.74-31.88L83.74-31.88Q86.10-31.02 87.91-29.06L87.91-29.06L87.91-29.06Q88.69-28.25 89.44-27.09L89.44-27.09L89.44-27.09Q90.18-25.93 90.77-24.39L90.77-24.39L90.77-24.39Q91.37-22.84 91.73-20.87L91.73-20.87L91.73-20.87Q92.09-18.89 92.09-16.44L92.09-16.44L92.09-9.99L92.09-9.99Q92.09-9.49 92.46-9.17L92.46-9.17L92.46-9.17Q92.82-8.85 93.18-8.45L93.18-8.45L93.18-8.45Q94.09-7.40 94.23-6.63L94.23-6.63L94.23-6.63Q94.36-5.86 94.36-5.36L94.36-5.36L94.36-5.36Q94.36-3.72 93.75-2.63L93.75-2.63L93.75-2.63Q93.14-1.54 92.11-0.86L92.11-0.86L92.11-0.86Q91.09-0.18 89.75 0.09L89.75 0.09L89.75 0.09Q88.41 0.36 87.01 0.36L87.01 0.36L87.01 0.36Q85.51 0.36 83.96-0.09L83.96-0.09L83.96-0.09Q82.42-0.54 81.15-1.48L81.15-1.48L81.15-1.48Q79.88-2.41 79.08-3.81L79.08-3.81L79.08-3.81Q78.29-5.22 78.29-7.08L78.29-7.08L78.29-16.44L78.29-16.44Q78.29-18.39 78.01-20.09L78.01-20.09L78.01-20.09Q77.74-21.80 76.97-23.05L76.97-23.05L76.97-23.05Q76.20-24.29 74.84-25.00L74.84-25.00L74.84-25.00Q73.47-25.70 71.29-25.70L71.29-25.70L66.21-25.70L66.21-10.44L66.21-10.44Q66.21-8.45 66.03-6.58L66.03-6.58L66.03-6.58Q65.84-4.72 65.14-3.25L65.14-3.25L65.14-3.25Q64.44-1.77 63.03-0.89L63.03-0.89L63.03-0.89Q61.62 0 59.21 0L59.21 0L59.21 0Q56.85 0 55.49-0.89L55.49-0.89L55.49-0.89Q54.13-1.77 53.45-3.25L53.45-3.25L53.45-3.25Q52.77-4.72 52.58-6.58L52.58-6.58L52.58-6.58Q52.40-8.45 52.40-10.44L52.40-10.44ZM105.53-10.44L105.53-53.13L105.53-53.13Q105.53-55.08 105.74-56.94L105.74-56.94L105.74-56.94Q105.94-58.81 106.69-60.28L106.69-60.28L106.69-60.28Q107.44-61.76 108.94-62.67L108.94-62.67L108.94-62.67Q110.44-63.57 113.07-63.57L113.07-63.57L113.07-63.57Q115.71-63.57 117.20-62.67L117.20-62.67L117.20-62.67Q118.70-61.76 119.45-60.28L119.45-60.28L119.45-60.28Q120.20-58.81 120.41-56.94L120.41-56.94L120.41-56.94Q120.61-55.08 120.61-53.13L120.61-53.13L120.61-10.44L120.61-10.44Q120.61-8.45 120.43-6.58L120.43-6.58L120.43-6.58Q120.25-4.72 119.50-3.25L119.50-3.25L119.50-3.25Q118.75-1.77 117.23-0.89L117.23-0.89L117.23-0.89Q115.71 0 113.07 0L113.07 0L113.07 0Q110.44 0 108.94-0.89L108.94-0.89L108.94-0.89Q107.44-1.77 106.69-3.25L106.69-3.25L106.69-3.25Q105.94-4.72 105.74-6.58L105.74-6.58L105.74-6.58Q105.53-8.45 105.53-10.44L105.53-10.44ZM136.23-6.72L136.23-53.13L136.23-53.13Q136.23-55.08 136.41-56.94L136.41-56.94L136.41-56.94Q136.59-58.81 137.30-60.28L137.30-60.28L137.30-60.28Q138.00-61.76 139.36-62.67L139.36-62.67L139.36-62.67Q140.73-63.57 143.13-63.57L143.13-63.57L143.13-63.57Q145.72-63.57 147.17-62.67L147.17-62.67L147.17-62.67Q148.63-61.76 149.31-60.28L149.31-60.28L149.31-60.28Q149.99-58.81 150.15-56.94L150.15-56.94L150.15-56.94Q150.31-55.08 150.31-53.13L150.31-53.13L150.31-13.35L159.21-13.35L159.21-13.35Q161.07-13.35 162.89-13.17L162.89-13.17L162.89-13.17Q164.70-12.99 166.13-12.31L166.13-12.31L166.13-12.31Q167.56-11.63 168.43-10.31L168.43-10.31L168.43-10.31Q169.29-8.99 169.29-6.72L169.29-6.72L169.29-6.72Q169.29-4.40 168.43-3.07L168.43-3.07L168.43-3.07Q167.56-1.73 166.13-1.04L166.13-1.04L166.13-1.04Q164.70-0.36 162.89-0.18L162.89-0.18L162.89-0.18Q161.07 0 159.21 0L159.21 0L146.31 0L146.31 0Q143.90 0 142.04-0.18L142.04-0.18L142.04-0.18Q140.18-0.36 138.89-1.04L138.89-1.04L138.89-1.04Q137.59-1.73 136.91-3.07L136.91-3.07L136.91-3.07Q136.23-4.40 136.23-6.72L136.23-6.72ZM180.19-6.72L180.19-53.13L180.19-53.13Q180.19-55.08 180.37-56.94L180.37-56.94L180.37-56.94Q180.55-58.81 181.25-60.28L181.25-60.28L181.25-60.28Q181.96-61.76 183.32-62.67L183.32-62.67L183.32-62.67Q184.68-63.57 187.09-63.57L187.09-63.57L187.09-63.57Q189.68-63.57 191.13-62.67L191.13-62.67L191.13-62.67Q192.58-61.76 193.27-60.28L193.27-60.28L193.27-60.28Q193.95-58.81 194.11-56.94L194.11-56.94L194.11-56.94Q194.26-55.08 194.26-53.13L194.26-53.13L194.26-13.35L203.17-13.35L203.17-13.35Q205.03-13.35 206.84-13.17L206.84-13.17L206.84-13.17Q208.66-12.99 210.09-12.31L210.09-12.31L210.09-12.31Q211.52-11.63 212.38-10.31L212.38-10.31L212.38-10.31Q213.25-8.99 213.25-6.72L213.25-6.72L213.25-6.72Q213.25-4.40 212.38-3.07L212.38-3.07L212.38-3.07Q211.52-1.73 210.09-1.04L210.09-1.04L210.09-1.04Q208.66-0.36 206.84-0.18L206.84-0.18L206.84-0.18Q205.03 0 203.17 0L203.17 0L190.27 0L190.27 0Q187.86 0 186-0.18L186-0.18L186-0.18Q184.14-0.36 182.84-1.04L182.84-1.04L182.84-1.04Q181.55-1.73 180.87-3.07L180.87-3.07L180.87-3.07Q180.19-4.40 180.19-6.72L180.19-6.72ZM234.13-47.59L234.13-47.59L234.13-47.59Q234.18-45.68 235.25-44.16L235.25-44.16L235.25-44.16Q236.31-42.64 238.06-41.28L238.06-41.28L238.06-41.28Q239.81-39.92 242.04-38.62L242.04-38.62L242.04-38.62Q244.26-37.33 246.60-35.90L246.60-35.90L246.60-35.90Q248.94-34.47 251.16-32.79L251.16-32.79L251.16-32.79Q253.39-31.11 255.16-28.97L255.16-28.97L255.16-28.97Q256.93-26.84 258.02-24.16L258.02-24.16L258.02-24.16Q259.11-21.48 259.20-18.07L259.20-18.07L259.20-17.71L259.20-17.71Q259.20-13.99 258.29-11.22L258.29-11.22L258.29-11.22Q257.38-8.45 255.89-6.45L255.89-6.45L255.89-6.45Q254.39-4.45 252.39-3.16L252.39-3.16L252.39-3.16Q250.39-1.86 248.19-1.09L248.19-1.09L248.19-1.09Q245.99-0.32 243.74 0L243.74 0L243.74 0Q241.49 0.32 239.49 0.36L239.49 0.36L239.04 0.36L239.04 0.36Q235.18 0.36 232.27-0.41L232.27-0.41L232.27-0.41Q229.37-1.18 227.28-2.47L227.28-2.47L227.28-2.47Q225.19-3.77 223.80-5.45L223.80-5.45L223.80-5.45Q222.42-7.13 221.60-8.92L221.60-8.92L221.60-8.92Q220.78-10.72 220.42-12.49L220.42-12.49L220.42-12.49Q220.06-14.26 220.06-15.80L220.06-15.80L220.06-15.80Q220.06-17.39 220.60-18.57L220.60-18.57L220.60-18.57Q221.15-19.75 222.03-20.50L222.03-20.50L222.03-20.50Q222.92-21.25 224.08-21.62L224.08-21.62L224.08-21.62Q225.23-21.98 226.51-21.98L226.51-21.98L226.51-21.98Q227.69-21.98 228.94-21.62L228.94-21.62L228.94-21.62Q230.18-21.25 231.21-20.50L231.21-20.50L231.21-20.50Q232.23-19.75 232.89-18.60L232.89-18.60L232.89-18.60Q233.54-17.44 233.59-15.89L233.59-15.89L233.59-15.89Q233.68-12.49 235.13-11.24L235.13-11.24L235.13-11.24Q236.59-9.99 239.31-9.99L239.31-9.99L239.31-9.99Q240.67-10.04 241.83-10.33L241.83-10.33L241.83-10.33Q242.99-10.63 243.81-11.38L243.81-11.38L243.81-11.38Q244.62-12.12 245.10-13.37L245.10-13.37L245.10-13.37Q245.58-14.62 245.58-16.53L245.58-16.53L245.58-16.53Q245.58-18.89 244.51-20.80L244.51-20.80L244.51-20.80Q243.44-22.71 241.72-24.34L241.72-24.34L241.72-24.34Q239.99-25.97 237.77-27.45L237.77-27.45L237.77-27.45Q235.54-28.93 233.23-30.40L233.23-30.40L233.23-30.40Q230.91-31.88 228.71-33.49L228.71-33.49L228.71-33.49Q226.51-35.10 224.73-37.01L224.73-37.01L224.73-37.01Q222.96-38.92 221.90-41.23L221.90-41.23L221.90-41.23Q220.83-43.55 220.78-46.50L220.78-46.50L220.78-47.23L220.78-47.23Q220.83-52.09 222.08-55.31L222.08-55.31L222.08-55.31Q223.33-58.53 225.76-60.44L225.76-60.44L225.76-60.44Q228.19-62.35 231.73-63.14L231.73-63.14L231.73-63.14Q235.27-63.94 239.86-63.94L239.86-63.94L241.04-63.94L241.04-63.94Q245.21-63.94 248.12-63.03L248.12-63.03L248.12-63.03Q251.03-62.12 252.96-60.71L252.96-60.71L252.96-60.71Q254.89-59.31 256.00-57.53L256.00-57.53L256.00-57.53Q257.11-55.76 257.66-54.04L257.66-54.04L257.66-54.04Q258.20-52.31 258.34-50.81L258.34-50.81L258.34-50.81Q258.47-49.32 258.47-48.41L258.47-48.41L258.47-48.41Q258.47-47.04 257.95-45.93L257.95-45.93L257.95-45.93Q257.43-44.82 256.54-44.05L256.54-44.05L256.54-44.05Q255.66-43.28 254.46-42.84L254.46-42.84L254.46-42.84Q253.25-42.41 251.84-42.41L251.84-42.41L251.84-42.41Q250.75-42.41 249.67-42.84L249.67-42.84L249.67-42.84Q248.58-43.28 247.71-43.96L247.71-43.96L247.71-43.96Q246.85-44.64 246.30-45.52L246.30-45.52L246.30-45.52Q245.76-46.41 245.76-47.32L245.76-47.32L245.76-47.32Q245.76-51.04 244.42-52.49L244.42-52.49L244.42-52.49Q243.08-53.95 240.49-53.95L240.49-53.95L240.49-53.95Q239.27-53.95 238.11-53.81L238.11-53.81L238.11-53.81Q236.95-53.67 236.06-53.06L236.06-53.06L236.06-53.06Q235.18-52.45 234.66-51.18L234.66-51.18L234.66-51.18Q234.13-49.91 234.13-47.59Z" fill="#90caf9"></path></g></g><style>text {
  font-size: 64px;
  font-family: Arial Black;
  dominant-baseline: central;
  text-anchor: middle;
}</style></svg>