<svg width="357.2375px" height="180.35258178710936px" xmlns="http://www.w3.org/2000/svg" viewBox="71.38125 -15.176290893554679 357.2375 180.35258178710936" style="background: rgba(0, 0, 0, 0);" preserveAspectRatio="xMidYMid"><defs><filter id="editing-hole" x="-100%" y="-100%" width="300%" height="300%"><feFlood flood-color="#90caf9" result="black"></feFlood><feMorphology operator="dilate" radius="2" in="SourceGraphic" result="erode"></feMorphology><feGaussianBlur in="erode" stdDeviation="4" result="blur"></feGaussianBlur><feOffset in="blur" dx="2" dy="2" result="offset"></feOffset><feComposite operator="atop" in="offset" in2="black" result="merge"></feComposite><feComposite operator="in" in="merge" in2="SourceGraphic" result="inner-shadow"></feComposite></filter></defs><g filter="url(#editing-hole)"><g transform="translate(127.34499931335449, 109.56999969482422)"><path d="M41.11-68.07L41.11-68.07L41.11-68.07Q42.48-68.07 43.68-67.58L43.68-67.58L43.68-67.58Q44.87-67.09 45.83-66.24L45.83-66.24L45.83-66.24Q46.78-65.38 47.46-64.18L47.46-64.18L47.46-64.18Q48.14-62.99 48.44-61.62L48.44-61.62L56.84-22.66L58.50-22.66L58.50-22.66Q60.55-32.18 62.70-42.11L62.70-42.11L62.70-42.11Q64.84-52.05 66.99-61.62L66.99-61.62L66.99-61.62Q67.43-63.48 68.31-64.99L68.31-64.99L68.31-64.99Q69.09-66.26 70.48-67.31L70.48-67.31L70.48-67.31Q71.88-68.36 74.12-68.36L74.12-68.36L74.12-68.36Q75.83-68.36 77.12-67.75L77.12-67.75L77.12-67.75Q78.42-67.14 79.27-66.19L79.27-66.19L79.27-66.19Q80.13-65.23 80.54-64.11L80.54-64.11L80.54-64.11Q80.96-62.99 80.96-61.91L80.96-61.91L80.96-61.91Q80.96-61.33 80.91-60.79L80.91-60.79L80.91-60.79Q80.86-60.25 80.76-59.86L80.76-59.86L80.76-59.86Q80.66-59.38 80.57-58.98L80.57-58.98L67.19-5.86L67.19-5.86Q66.46-4.20 65.23-2.93L65.23-2.93L65.23-2.93Q64.21-1.81 62.57-0.90L62.57-0.90L62.57-0.90Q60.94 0 58.50 0L58.50 0L56.84 0L56.84 0Q54.39 0 52.83-0.90L52.83-0.90L52.83-0.90Q51.27-1.81 50.34-2.93L50.34-2.93L50.34-2.93Q49.27-4.20 48.73-5.86L48.73-5.86L41.89-34.47L40.23-34.47L40.23-34.47Q38.67-27.54 36.89-20.17L36.89-20.17L36.89-20.17Q35.11-12.79 33.50-5.86L33.50-5.86L33.50-5.86Q32.86-4.20 31.79-2.93L31.79-2.93L31.79-2.93Q30.81-1.81 29.27-0.90L29.27-0.90L29.27-0.90Q27.73 0 25.29 0L25.29 0L23.63 0L23.63 0Q21.19 0 19.51-0.90L19.51-0.90L19.51-0.90Q17.82-1.81 16.75-2.93L16.75-2.93L16.75-2.93Q15.48-4.20 14.75-5.86L14.75-5.86L1.56-58.98L1.56-58.98Q1.46-59.38 1.37-59.86L1.37-59.86L1.37-59.86Q1.27-60.25 1.22-60.79L1.22-60.79L1.22-60.79Q1.17-61.33 1.17-61.91L1.17-61.91L1.17-61.91Q1.17-62.99 1.59-64.11L1.59-64.11L1.59-64.11Q2.00-65.23 2.86-66.19L2.86-66.19L2.86-66.19Q3.71-67.14 5.00-67.75L5.00-67.75L5.00-67.75Q6.30-68.36 8.01-68.36L8.01-68.36L8.01-68.36Q10.25-68.36 11.65-67.31L11.65-67.31L11.65-67.31Q13.04-66.26 13.82-64.99L13.82-64.99L13.82-64.99Q14.70-63.48 15.14-61.62L15.14-61.62L23.63-22.66L25.29-22.66L25.29-22.66Q26.22-27.15 27.29-32.10L27.29-32.10L27.29-32.10Q28.37-37.06 29.47-42.11L29.47-42.11L29.47-42.11Q30.57-47.17 31.67-52.12L31.67-52.12L31.67-52.12Q32.76-57.08 33.79-61.62L33.79-61.62L33.79-61.62Q34.47-64.40 36.43-66.24L36.43-66.24L36.43-66.24Q38.38-68.07 41.11-68.07ZM86.43-19.82L86.43-49.02L86.43-49.02Q86.43-53.71 87.79-57.01L87.79-57.01L87.79-57.01Q89.16-60.30 91.28-62.50L91.28-62.50L91.28-62.50Q93.41-64.70 95.97-65.94L95.97-65.94L95.97-65.94Q98.54-67.19 100.95-67.82L100.95-67.82L100.95-67.82Q103.37-68.46 105.32-68.60L105.32-68.60L105.32-68.60Q107.28-68.75 108.20-68.75L108.20-68.75L109.86-68.75L109.86-68.75Q110.79-68.75 112.74-68.60L112.74-68.60L112.74-68.60Q114.70-68.46 117.09-67.82L117.09-67.82L117.09-67.82Q119.48-67.19 122.05-65.94L122.05-65.94L122.05-65.94Q124.61-64.70 126.68-62.50L126.68-62.50L126.68-62.50Q128.76-60.30 130.10-57.01L130.10-57.01L130.10-57.01Q131.45-53.71 131.45-49.02L131.45-49.02L131.45-19.82L131.45-19.82Q131.45-14.99 130.10-11.62L130.10-11.62L130.10-11.62Q128.76-8.25 126.68-6.01L126.68-6.01L126.68-6.01Q124.61-3.76 122.05-2.47L122.05-2.47L122.05-2.47Q119.48-1.17 117.09-0.54L117.09-0.54L117.09-0.54Q114.70 0.10 112.74 0.24L112.74 0.24L112.74 0.24Q110.79 0.39 109.86 0.39L109.86 0.39L108.20 0.39L108.20 0.39Q107.28 0.39 105.32 0.24L105.32 0.24L105.32 0.24Q103.37 0.10 100.95-0.54L100.95-0.54L100.95-0.54Q98.54-1.17 95.97-2.47L95.97-2.47L95.97-2.47Q93.41-3.76 91.28-6.01L91.28-6.01L91.28-6.01Q89.16-8.25 87.79-11.62L87.79-11.62L87.79-11.62Q86.43-14.99 86.43-19.82L86.43-19.82ZM102.64-49.80L102.64-17.97L102.64-17.97Q102.73-16.16 103.47-14.79L103.47-14.79L103.47-14.79Q104.10-13.57 105.40-12.60L105.40-12.60L105.40-12.60Q106.69-11.62 109.08-11.62L109.08-11.62L109.08-11.62Q111.43-11.62 112.70-12.60L112.70-12.60L112.70-12.60Q113.96-13.57 114.60-14.79L114.60-14.79L114.60-14.79Q115.28-16.16 115.43-17.97L115.43-17.97L115.43-49.80L115.43-49.80Q115.28-51.56 114.60-52.98L114.60-52.98L114.60-52.98Q113.96-54.15 112.70-55.15L112.70-55.15L112.70-55.15Q111.43-56.15 109.08-56.15L109.08-56.15L109.08-56.15Q106.69-56.15 105.40-55.15L105.40-55.15L105.40-55.15Q104.10-54.15 103.47-52.98L103.47-52.98L103.47-52.98Q102.73-51.56 102.64-49.80L102.64-49.80ZM143.36-11.33L143.36-57.23L143.36-57.23Q143.36-59.33 143.48-61.33L143.48-61.33L143.48-61.33Q143.60-63.33 144.29-64.89L144.29-64.89L144.29-64.89Q144.97-66.46 146.46-67.41L146.46-67.41L146.46-67.41Q147.95-68.36 150.68-68.36L150.68-68.36L166.80-68.36L166.80-68.36Q172.80-68.07 177.54-65.82L177.54-65.82L177.54-65.82Q179.54-64.84 181.47-63.40L181.47-63.40L181.47-63.40Q183.40-61.96 184.91-59.84L184.91-59.84L184.91-59.84Q186.43-57.71 187.35-54.83L187.35-54.83L187.35-54.83Q188.28-51.95 188.28-48.14L188.28-48.14L188.28-48.14Q188.28-47.36 188.13-46.07L188.13-46.07L188.13-46.07Q187.99-44.78 187.50-43.24L187.50-43.24L187.50-43.24Q187.01-41.70 186.18-40.04L186.18-40.04L186.18-40.04Q185.35-38.38 183.98-36.87L183.98-36.87L183.98-36.87Q182.62-35.35 180.64-34.08L180.64-34.08L180.64-34.08Q178.66-32.81 175.98-32.03L175.98-32.03L175.98-32.03Q177.69-31.35 179.44-30.25L179.44-30.25L179.44-30.25Q181.20-29.15 182.62-27.44L182.62-27.44L182.62-27.44Q184.03-25.73 184.94-23.34L184.94-23.34L184.94-23.34Q185.84-20.95 185.84-17.77L185.84-17.77L185.84-10.84L185.84-10.84Q185.84-10.25 186.13-9.86L186.13-9.86L186.13-9.86Q186.43-9.47 186.72-9.18L186.72-9.18L186.72-9.18Q187.89-8.01 188.09-7.15L188.09-7.15L188.09-7.15Q188.28-6.30 188.28-5.76L188.28-5.76L188.28-5.76Q188.28-4.05 187.60-2.88L187.60-2.88L187.60-2.88Q186.91-1.71 185.82-0.98L185.82-0.98L185.82-0.98Q184.72-0.24 183.33 0.07L183.33 0.07L183.33 0.07Q181.93 0.39 180.47 0.39L180.47 0.39L180.47 0.39Q178.86 0.39 177.20-0.12L177.20-0.12L177.20-0.12Q175.54-0.63 174.17-1.61L174.17-1.61L174.17-1.61Q172.80-2.59 171.95-4.05L171.95-4.05L171.95-4.05Q171.09-5.52 171.09-7.42L171.09-7.42L171.09-17.77L171.09-17.77Q171.09-19.92 170.80-21.73L170.80-21.73L170.80-21.73Q170.51-23.54 169.68-24.85L169.68-24.85L169.68-24.85Q168.85-26.17 167.38-26.90L167.38-26.90L167.38-26.90Q165.92-27.64 163.57-27.64L163.57-27.64L158.11-27.64L158.11-11.33L158.11-11.33Q158.11-9.18 157.98-7.13L157.98-7.13L157.98-7.13Q157.86-5.08 157.18-3.49L157.18-3.49L157.18-3.49Q156.49-1.90 154.98-0.95L154.98-0.95L154.98-0.95Q153.47 0 150.68 0L150.68 0L150.68 0Q147.95 0 146.46-0.95L146.46-0.95L146.46-0.95Q144.97-1.90 144.29-3.49L144.29-3.49L144.29-3.49Q143.60-5.08 143.48-7.13L143.48-7.13L143.48-7.13Q143.36-9.18 143.36-11.33L143.36-11.33ZM158.11-38.57L164.75-38.57L164.75-38.57Q167.19-38.67 169.14-39.75L169.14-39.75L169.14-39.75Q169.97-40.19 170.75-40.87L170.75-40.87L170.75-40.87Q171.53-41.55 172.17-42.58L172.17-42.58L172.17-42.58Q172.80-43.60 173.17-44.97L173.17-44.97L173.17-44.97Q173.54-46.34 173.54-48.14L173.54-48.14L173.54-48.14Q173.54-49.76 173.17-51.00L173.17-51.00L173.17-51.00Q172.80-52.25 172.22-53.17L172.22-53.17L172.22-53.17Q171.63-54.10 170.87-54.74L170.87-54.74L170.87-54.74Q170.12-55.37 169.34-55.76L169.34-55.76L169.34-55.76Q167.48-56.69 165.14-56.84L165.14-56.84L158.11-56.84L158.11-38.57ZM199.02-11.23L199.02-57.23L199.02-57.23Q199.02-59.33 199.22-61.33L199.22-61.33L199.22-61.33Q199.41-63.33 200.15-64.89L200.15-64.89L200.15-64.89Q200.88-66.46 202.34-67.41L202.34-67.41L202.34-67.41Q203.81-68.36 206.35-68.36L206.35-68.36L206.35-68.36Q208.94-68.36 210.45-67.41L210.45-67.41L210.45-67.41Q211.96-66.46 212.72-64.89L212.72-64.89L212.72-64.89Q213.48-63.33 213.67-61.33L213.67-61.33L213.67-61.33Q213.87-59.33 213.87-57.23L213.87-57.23L213.87-39.65L219.43-39.65L219.43-39.65Q221.04-43.85 222.66-47.90L222.66-47.90L222.66-47.90Q223.34-49.61 224.07-51.44L224.07-51.44L224.07-51.44Q224.80-53.27 225.51-55.03L225.51-55.03L225.51-55.03Q226.22-56.79 226.88-58.42L226.88-58.42L226.88-58.42Q227.54-60.06 228.13-61.33L228.13-61.33L228.13-61.33Q228.71-62.70 229.37-63.96L229.37-63.96L229.37-63.96Q230.03-65.23 230.91-66.21L230.91-66.21L230.91-66.21Q231.79-67.19 232.89-67.77L232.89-67.77L232.89-67.77Q233.98-68.36 235.45-68.36L235.45-68.36L235.45-68.36Q236.87-68.36 238.23-67.92L238.23-67.92L238.23-67.92Q239.60-67.48 240.67-66.60L240.67-66.60L240.67-66.60Q241.75-65.72 242.41-64.45L242.41-64.45L242.41-64.45Q243.07-63.18 243.07-61.52L243.07-61.52L243.07-61.52Q243.07-60.25 242.65-58.52L242.65-58.52L242.65-58.52Q242.24-56.79 241.50-55.08L241.50-55.08L232.71-34.28L232.71-34.28Q235.25-33.35 237.21-31.25L237.21-31.25L237.21-31.25Q238.04-30.37 238.84-29.13L238.84-29.13L238.84-29.13Q239.65-27.88 240.28-26.22L240.28-26.22L240.28-26.22Q240.92-24.56 241.31-22.44L241.31-22.44L241.31-22.44Q241.70-20.31 241.70-17.68L241.70-17.68L241.70-10.74L241.70-10.74Q241.70-10.21 242.09-9.86L242.09-9.86L242.09-9.86Q242.48-9.52 242.87-9.08L242.87-9.08L242.87-9.08Q243.85-7.96 243.99-7.13L243.99-7.13L243.99-7.13Q244.14-6.30 244.14-5.76L244.14-5.76L244.14-5.76Q244.14-4.00 243.48-2.83L243.48-2.83L243.48-2.83Q242.82-1.66 241.72-0.93L241.72-0.93L241.72-0.93Q240.63-0.20 239.18 0.10L239.18 0.10L239.18 0.10Q237.74 0.39 236.23 0.39L236.23 0.39L236.23 0.39Q234.62 0.39 232.96-0.10L232.96-0.10L232.96-0.10Q231.30-0.59 229.93-1.59L229.93-1.59L229.93-1.59Q228.56-2.59 227.71-4.10L227.71-4.10L227.71-4.10Q226.86-5.62 226.86-7.62L226.86-7.62L226.86-17.68L226.86-17.68Q226.86-19.78 226.56-21.61L226.56-21.61L226.56-21.61Q226.27-23.44 225.44-24.78L225.44-24.78L225.44-24.78Q224.61-26.12 223.14-26.88L223.14-26.88L223.14-26.88Q221.68-27.64 219.34-27.64L219.34-27.64L213.87-27.64L213.87-11.23L213.87-11.23Q213.87-9.08 213.67-7.08L213.67-7.08L213.67-7.08Q213.48-5.08 212.72-3.49L212.72-3.49L212.72-3.49Q211.96-1.90 210.45-0.95L210.45-0.95L210.45-0.95Q208.94 0 206.35 0L206.35 0L206.35 0Q203.81 0 202.34-0.95L202.34-0.95L202.34-0.95Q200.88-1.90 200.15-3.49L200.15-3.49L200.15-3.49Q199.41-5.08 199.22-7.08L199.22-7.08L199.22-7.08Q199.02-9.08 199.02-11.23L199.02-11.23Z" fill="#90caf9"></path></g></g><style>text {
  font-size: 64px;
  font-family: Arial Black;
  dominant-baseline: central;
  text-anchor: middle;
}</style></svg>